<?xml version="1.0" encoding="UTF-8"?><!-- Generator: Adobe Illustrator 12.0.1, SVG Export Plug-In . SVG Version: 6.00 Build 51448)  --><svg xmlns:xlink="http://www.w3.org/1999/xlink" xmlns="http://www.w3.org/2000/svg" contentScriptType="text/ecmascript" zoomAndPan="magnify" contentStyleType="text/css" id="Layer_1" enable-background="new 0 0 317.147 436.483" version="1.1" width="317.147" xml:space="preserve" preserveAspectRatio="xMidYMid meet" viewBox="0 0 317.147 436.483" height="436.483" overflow="visible">
<g>
	<path fill="#4C721D" clip-rule="evenodd" d="M133.016,11.151c16.974,15.568,23.936,49.703,22.302,76.464   c2.936,2.842,1.005-3.675,4.779-2.39c-0.223,1.815,0.192,2.994,1.593,3.186c-2.768,2.431-9.962-0.058-15.93,0.796   c-0.753-7.211-4.125-11.805-7.965-15.93C132.791,52.878,138.875,28.879,133.016,11.151z M148.149,86.819   c-1.14-21.149-0.916-49.877-10.354-65.313C144.68,36.874,144.722,65.626,148.149,86.819z" fill-rule="evenodd"/>
	<path clip-rule="evenodd" d="M156.115,14.337c4.177,4.319-0.477,17.468,2.389,23.099   c-1.568,1.817-2.676,0.927-4.779,3.186c-2.524-1.737-0.917-6.029,3.186-5.576C155.928,28.86,156.055,21.565,156.115,14.337z" fill-rule="evenodd"/>
	<path clip-rule="evenodd" d="M137.795,21.505c9.439,15.437,9.215,44.165,10.354,65.313   C144.722,65.626,144.68,36.874,137.795,21.505z" fill-rule="evenodd"/>
	<path fill="#4C721D" clip-rule="evenodd" d="M192.753,39.825c0.914,0.281,2.019,1.402,0.797,1.593   c-7.656,14.115-15.952,27.591-17.523,47.79c-3.337,0.987-8.819-0.179-12.744,0C157.906,63.719,179.991,52.432,192.753,39.825z    M183.992,53.366c-0.09-0.972-0.238-1.886-1.593-1.593c-5.991,9.938-13.165,18.695-15.133,32.657   C172.208,73.442,176.02,61.324,183.992,53.366z" fill-rule="evenodd"/>
	<path clip-rule="evenodd" d="M167.266,84.429c1.969-13.961,9.142-22.718,15.133-32.657   c1.355-0.293,1.503,0.621,1.593,1.593C176.02,61.324,172.208,73.442,167.266,84.429z" fill-rule="evenodd"/>
	<path fill="#4C721D" clip-rule="evenodd" d="M161.69,57.348c-2.754,0.63-3.362-0.885-4.779-1.593   C157.398,52.902,162.005,54.697,161.69,57.348z" fill-rule="evenodd"/>
	<path clip-rule="evenodd" d="M130.626,57.348c2.593,0.062,1.7,3.61,2.39,5.576   c-1.362,0.167-2.063-1.358-2.39,0C128.655,62.155,131.724,59.865,130.626,57.348z" fill-rule="evenodd"/>
	<path fill="#4C721D" clip-rule="evenodd" d="M161.69,59.738c0.778,3.208-4.76,3.208-3.982,0   C159.689,59.65,160.173,58.245,161.69,59.738z" fill-rule="evenodd"/>
	<path fill="#4C721D" clip-rule="evenodd" d="M158.504,62.924c1.062,0,2.124,0,3.186,0   c0.152,3.629-2.074,5.355-4.779,3.982C157.25,65.387,159.187,65.465,158.504,62.924z" fill-rule="evenodd"/>
	<path fill="#4C721D" clip-rule="evenodd" d="M161.69,66.906c2.549,0.187,1.826,5.167-0.796,4.779   C160.789,69.722,160.773,67.848,161.69,66.906z" fill-rule="evenodd"/>
	<path fill="#4C721D" clip-rule="evenodd" d="M180.806,73.278c2.541-0.683,2.463,1.253,3.982,1.593   c-1.149,2.568-1.718,5.716-5.575,5.576C180.108,77.261,181.999,76.841,180.806,73.278z" fill-rule="evenodd"/>
	<path fill="#4C721D" clip-rule="evenodd" d="M158.504,74.075c3.643-0.697,3.189,6.288-0.796,4.779   C156.313,76.033,158.238,76.895,158.504,74.075z" fill-rule="evenodd"/>
	<path clip-rule="evenodd" d="M151.335,93.987c2.38,0.274,3.171,2.139,3.982,3.982   C153.015,97.618,151.687,96.291,151.335,93.987z" fill-rule="evenodd"/>
	<path clip-rule="evenodd" d="M170.452,94.784c-1.015,1.906-2.598,3.243-5.576,3.186   C165.302,95.475,167.847,95.1,170.452,94.784z" fill-rule="evenodd"/>
	<path clip-rule="evenodd" d="M122.662,101.952c5.698,0.674,3.824,8.92,8.761,10.354   c-1.251,2.5-1.624,2.16-0.796,5.576C125.733,114.811,124.802,107.776,122.662,101.952z" fill-rule="evenodd"/>
	<path clip-rule="evenodd" d="M158.504,105.935c4.668-0.069,10.426,9.641,11.151,13.541   C164.77,116.129,162.464,110.206,158.504,105.935z" fill-rule="evenodd"/>
	<path clip-rule="evenodd" d="M178.417,105.138c1.062,0,2.124,0,3.186,0   C182.532,107.903,177.152,108.842,178.417,105.138z" fill-rule="evenodd"/>
	<path clip-rule="evenodd" d="M150.539,107.528c-3.098,3.008-7.334,4.879-8.762,9.558   C138.751,113.856,145.802,108.173,150.539,107.528z" fill-rule="evenodd"/>
	<path clip-rule="evenodd" d="M199.125,108.324c-3.228,2.613-6.433,5.249-10.354,7.168   C191.409,112.29,193.947,108.986,199.125,108.324z" fill-rule="evenodd"/>
	<path clip-rule="evenodd" d="M118.679,117.086c1.401,0.192,1.816,1.37,1.593,3.186c-0.796,0-1.593,0-2.39,0   C117.545,118.607,118.428,118.163,118.679,117.086z" fill-rule="evenodd"/>
	<path clip-rule="evenodd" d="M116.29,119.475c0.207,2.597-0.946,3.833-3.186,3.983   C112.896,120.861,114.049,119.625,116.29,119.475z" fill-rule="evenodd"/>
	<path clip-rule="evenodd" d="M152.132,119.475c1.287-0.224,1.372,0.753,2.39,0.797   c-0.142,3.575-1.107,6.326-4.779,6.372C149.287,123.002,151.693,122.223,152.132,119.475z" fill-rule="evenodd"/>
	<path clip-rule="evenodd" d="M221.428,119.475c0.64,0.421,1.293,0.831,2.389,0.797   c-0.101,2.288-0.996,3.782-3.982,3.186C219.712,121.477,221.086,120.992,221.428,119.475z" fill-rule="evenodd"/>
	<path clip-rule="evenodd" d="M101.952,122.661c4.283,2.621,3.587,10.219,7.965,12.744   c-0.117,1.741-2.007,1.71-3.982,1.593C104.802,132.41,100.787,126.946,101.952,122.661z" fill-rule="evenodd"/>
	<path clip-rule="evenodd" d="M136.202,123.458c4.635,4.923,8.036,11.08,11.151,17.523   C141.251,137.525,138.223,130.995,136.202,123.458z" fill-rule="evenodd"/>
	<path clip-rule="evenodd" d="M203.108,123.458c0.796,0,1.593,0,2.389,0c1.585,2.167,0.894,7.379-2.389,7.168   C201.581,128.674,205.332,126.425,203.108,123.458z" fill-rule="evenodd"/>
	<path clip-rule="evenodd" d="M175.23,126.644c-1.482,4.432-7.068,12.045-14.337,15.134   C164.66,135.72,169.479,130.716,175.23,126.644z" fill-rule="evenodd"/>
	<path clip-rule="evenodd" d="M179.213,127.44c6.704,2.593,11.676,13.808,20.709,16.727   C191.655,146.186,184.555,133.62,179.213,127.44z" fill-rule="evenodd"/>
	<path clip-rule="evenodd" d="M127.44,129.83c0.713,1.089-4.739,12.883-9.558,11.151   C120.935,137.13,123.834,133.126,127.44,129.83z" fill-rule="evenodd"/>
	<path clip-rule="evenodd" d="M227.799,131.423c1.439,1.365-0.244,3.132-2.389,3.186   C225.186,132.526,225.702,131.183,227.799,131.423z" fill-rule="evenodd"/>
	<path clip-rule="evenodd" d="M234.171,133.812c2.551,1.838-1.386,3.861-3.982,3.186   C230.379,134.799,233.151,135.181,234.171,133.812z" fill-rule="evenodd"/>
	<path clip-rule="evenodd" d="M216.649,141.777c-4.263,1.578-2.505,9.177-8.762,8.762   C210.475,147.659,211.322,139.32,216.649,141.777z" fill-rule="evenodd"/>
	<path clip-rule="evenodd" d="M239.748,141.777c0.8-2.004,3.521,0.634,3.186,2.39   c-2.976-0.852-2.27,1.978-4.778,1.593C236.582,142.767,242.239,143.065,239.748,141.777z" fill-rule="evenodd"/>
	<path clip-rule="evenodd" d="M94.784,142.574c2.614,1.248,3.512,1.184,5.576,1.593   c0.58,2.173-1.583,1.603-1.593,3.186C96.342,146.856,94.694,145.584,94.784,142.574z" fill-rule="evenodd"/>
	<path clip-rule="evenodd" d="M234.968,143.37c2.396-0.803,1.411,1.775,1.593,3.186c-0.796,0-1.593,0-2.39,0   C233.834,144.892,234.717,144.447,234.968,143.37z" fill-rule="evenodd"/>
	<path clip-rule="evenodd" d="M152.929,144.167c3.751,4.818,9.78,11.361,11.151,15.93   c-5.105-2.329-7.343-7.524-9.558-12.744c-5.793,3.5-6.712,11.873-12.744,15.133C143.808,154.693,149.335,150.397,152.929,144.167z" fill-rule="evenodd"/>
	<path clip-rule="evenodd" d="M227.799,144.167c0.797,0,1.594,0,2.39,0c0.88,2.297,1.931,7.858-2.39,7.168   C229.095,148.769,228.18,147.021,227.799,144.167z" fill-rule="evenodd"/>
	<path clip-rule="evenodd" d="M176.824,146.556c4.479,1.661-3.734,5.006,0,8.762   c-3.339,0.419-3.157-2.684-3.982-4.779C174.48,149.523,176.881,149.269,176.824,146.556z" fill-rule="evenodd"/>
	<path clip-rule="evenodd" d="M120.272,148.149c3.041,5.19,7.977,8.484,10.354,14.337   C125.846,159.481,119.17,154.413,120.272,148.149z" fill-rule="evenodd"/>
	<path clip-rule="evenodd" d="M85.226,149.742c2.516,3.591,4.632,7.581,7.169,11.151   C87.67,159.896,84.25,153.837,85.226,149.742z" fill-rule="evenodd"/>
	<path clip-rule="evenodd" d="M113.104,153.725c-2.203,6.293-7.009,9.982-9.558,15.93   c0.21,4.569,4.867,4.691,5.575,8.762c-5.885,0.044-6.515-5.167-8.761-8.762C105.136,164.874,106.088,156.268,113.104,153.725z" fill-rule="evenodd"/>
	<path clip-rule="evenodd" d="M203.108,154.521c-4.335,4.692-8.589,9.465-11.151,15.93   C189.991,165.582,196.119,155.678,203.108,154.521z" fill-rule="evenodd"/>
	<path clip-rule="evenodd" d="M79.65,165.672c1.593,0,3.186,0,4.779,0c-2.026,1.957-2.246,5.719-3.186,8.762   C78.306,173.282,80.53,169.92,79.65,165.672z" fill-rule="evenodd"/>
	<path clip-rule="evenodd" d="M117.086,165.672c2.42,0.982-0.864,2.739,0,4.779c-1.062,0-2.124,0-3.186,0   C113.758,167.655,116.59,167.832,117.086,165.672z" fill-rule="evenodd"/>
	<path clip-rule="evenodd" d="M153.725,201.515c-14.9-0.233-11.335-18.932-18.32-27.081   c-27.493,1.181-20.929,36.418-40.622,45.4c10.725-9.877,16.522-44.512,32.657-48.586c6.826-1.724,9.854,2.103,13.541,5.575   C141.68,188.603,146.146,196.616,153.725,201.515z" fill-rule="evenodd"/>
	<path fill="#F4DC00" clip-rule="evenodd" d="M258.864,171.248c0.122,1.981-1.252,2.466-1.594,3.982   C255.442,174.605,256.496,170.3,258.864,171.248z" fill-rule="evenodd"/>
	<path clip-rule="evenodd" d="M143.371,176.027c4.457,2.446,7.734,6.072,11.151,9.558   c-1.13-0.068-2.255-0.131-2.39,0.796C147.693,184.449,145.175,180.594,143.371,176.027z" fill-rule="evenodd"/>
	<path clip-rule="evenodd" d="M94.784,177.62c3.233,1.225-1.464,5.146-3.186,6.372   c-2.748,3.889-2.784,10.491-7.965,11.947C86.847,189.331,89.664,182.324,94.784,177.62z" fill-rule="evenodd"/>
	<path clip-rule="evenodd" d="M261.252,178.417c1.579,0.547,2.429,5.821-0.796,5.576   C260.464,181.876,260.156,179.443,261.252,178.417z" fill-rule="evenodd"/>
	<path clip-rule="evenodd" d="M73.278,181.603c1.167,6.619,7.318,12.211,7.965,16.727   c-6.253-3.039-6.934-11.651-11.947-15.93C70.023,179.725,70.776,182.004,73.278,181.603z" fill-rule="evenodd"/>
	<path clip-rule="evenodd" d="M94.784,192.753c3.338-0.948,1.422,3.357,3.186,3.982   c-0.551,1.573-2.125,2.124-3.982,2.39C93.014,198.058,94.058,194.515,94.784,192.753z" fill-rule="evenodd"/>
	<path clip-rule="evenodd" d="M60.534,195.143c2.571-0.713,1.119,2.598,2.39,3.186   c-1.204,2.513-2.985,4.449-3.982,7.168C54.968,203.552,60.438,198.231,60.534,195.143z" fill-rule="evenodd"/>
	<path fill="#F4DC00" clip-rule="evenodd" d="M274.793,206.294c3.154,3.007,3.348,6.801,1.593,11.151   c5.426,0.646,1.021-8.538,6.372-7.965c0.102-1.429-0.975-1.68-0.796-3.186c-3.881,3.854-4.185-3.877-6.372-6.372   c7.421,3.465,11.506,10.265,14.337,18.32c-3.012,1.153-1.528-2.188-3.982-1.593c-1.327,1.329-1.478,3.833-3.187,4.779   c0.356,3.643,3.427-1.214,3.982,0.796c0.24,2.099-1.103,2.614-3.186,2.39c1.184,4.264-2.064,8.46,1.593,10.354   c1.816-1.104,0.297-5.544,0.797-7.965c1.786,0.869,1.399,3.91,3.186,4.779c-2.239,2.251-1.064,7.603-1.593,9.558   C281.061,231.643,270.4,222.184,274.793,206.294z M284.351,215.852c1.788-1.075,0.744-5.991-0.796-6.372   C284.829,212.243,280.564,215.603,284.351,215.852z" fill-rule="evenodd"/>
	<path clip-rule="evenodd" d="M73.278,206.294c-0.026,6.442-7.6,17.441-17.523,19.116   c-3.318-3.585-4.601-9.206-7.169-13.541c2.274,1.192,8.345,5.451,9.558,10.354C64.206,217.931,67.471,210.842,73.278,206.294z" fill-rule="evenodd"/>
	<path clip-rule="evenodd" d="M224.614,266.828c-2.641-0.015-0.809-4.501-2.39-5.575   c-18.92,14.809-50.618-12.736-51.772-32.657c-0.77-13.281,4.858-22.185,18.319-19.913c13.724,2.316,31.066,19.579,35.046,33.453   C226.666,252.063,222.873,259.71,224.614,266.828z M201.515,218.242c0.621-0.176,0.926-0.667,0.796-1.593   c-3.969,0.236-1.001,6.181-2.389,7.169c-0.367-2.554-3.616-2.225-3.983-4.779c1.976,0.117,3.866,0.148,3.983-1.593   c-0.963-0.168-0.49-0.884,0-1.593c-1.488-1.559-2.917-0.246-4.779,0c0.044-1.018,1.021-1.103,0.796-2.39   c-3.686-1.214-12.523-4.461-15.93-0.796c5.86,3.656,9.913,5.415,15.133,6.372c-2.501,0.402-3.254-1.877-3.982,0.796   c3.893,1.354,5.122,8.028,10.354,5.576c-0.01,1.583-2.173,1.013-1.593,3.186c4.05,1.502,6.414,9.64,10.354,6.372   c1.046,7.413,7.84,12.272,12.744,19.913c0.612-3.002-0.972-3.808-0.797-6.372c-1.565-0.238-1.579,1.075-2.389,1.593   c-1.082-3.471,1.897-2.882,2.389-4.779C217.605,234.331,210.573,222.22,201.515,218.242z M194.347,227.003   c-0.372,2.04,2.817,4.516,0.796,5.576c-4.105-2.268-3.195-9.549-7.965-11.151c-1.036,1.978,2.337,3.306,0,3.982   c-5.321-2.784-4.766-13.395-12.744-11.151c-1.238,2.831,2.705,0.48,2.39,2.389c-5.331,6.05-3.508,21.376,2.39,25.488   c7.012-23.205,33.344,2.821,23.098,19.912c5.675,1.138,13.9,1.556,17.523-1.593c-2.037-3.805-4.272-7.41-5.576-11.947   c-2.73-0.142,0.07,2.69-3.186,3.186c-1.283-4.558-1.619-10.062-4.779-12.744c-0.864,2.04,2.419,3.798,0,4.779   C200.753,236.277,200.348,233.205,194.347,227.003z M192.753,254.881c2.732-3.27,1.769-7.384-3.186-7.965   C186.67,249.153,189.115,254.492,192.753,254.881z" fill-rule="evenodd"/>
	<path clip-rule="evenodd" d="M283.555,209.48c1.54,0.381,2.584,5.297,0.796,6.372   C280.564,215.603,284.829,212.243,283.555,209.48z" fill-rule="evenodd"/>
	<path clip-rule="evenodd" d="M250.898,215.852c3.606,0.523,1.067,6.982-2.389,5.576   C249.246,219.51,249.962,217.571,250.898,215.852z" fill-rule="evenodd"/>
	<path fill="#FFFFFF" clip-rule="evenodd" d="M144.963,218.242c0.531,0,1.062,0,1.593,0   c7.648,5.839,5.169,23.931-0.796,29.47c-7.69-24.569-38.615-0.121-27.878,19.116c-6.676,1.246-11.858,0.735-15.133-3.186   c1.027-2.159,1.949-4.423,1.593-7.966c4.621-1.485,7.951-4.262,8.762-9.558c1.836-0.244,0.885,2.301,2.389,2.39   c1.833-1.618,2.138-4.766,2.39-7.965c4.172,2.503,4.422-2.751,5.576-5.576c5.785,2.113,5.615-7.31,9.558-9.558   c2.334,0.675-0.476,2.564,0,3.982c5.77-0.071,3.606-8.076,8.761-8.761c1.849,1.836-1.474,2.568-0.796,5.575   C144.278,225.521,143.347,220.607,144.963,218.242z" fill-rule="evenodd"/>
	<path clip-rule="evenodd" d="M124.254,220.631c-1.342,2.657,0.506,2.719,0.796,5.575   c-3.011-0.175-3.868-2.504-6.372-3.186C120.206,220.463,121.732,222.525,124.254,220.631z" fill-rule="evenodd"/>
	<path clip-rule="evenodd" d="M215.056,232.579c-0.803,3.103-2.742,0.123-5.576,0.796   c0.105-1.964,0.121-3.837-0.796-4.779c-2.127-0.003-1.731,2.517-3.982,2.389c3.135-4.49-4.126-6.624-2.39-9.558   c1.66,1.526,3.319,3.053,3.983,5.575C211.926,224.339,209.348,233.093,215.056,232.579z" fill-rule="evenodd"/>
	<path fill="#F4DC00" clip-rule="evenodd" d="M292.317,221.428c-0.15,3.036-1.132,5.241-3.982,5.575   C287.463,225.551,287.849,220.033,292.317,221.428z" fill-rule="evenodd"/>
	<path clip-rule="evenodd" d="M78.057,226.207c0.975,3.629-2.185,3.125-1.593,6.373c-1.328,0-2.655,0-3.982,0   C74.032,230.146,73.93,226.062,78.057,226.207z" fill-rule="evenodd"/>
	<path clip-rule="evenodd" d="M93.987,229.393c1.002,0.197,0.803,1.584,0,1.593   c-6.329,5.354-6.188,17.176-14.337,20.709C84.606,244.438,87.359,234.978,93.987,229.393z" fill-rule="evenodd"/>
	<path clip-rule="evenodd" d="M50.976,230.985c-2.147,3.959-6.381,5.832-8.761,9.559   C41.315,236.706,47.474,233.071,50.976,230.985z" fill-rule="evenodd"/>
	<path clip-rule="evenodd" d="M60.534,234.968c6.035,7.24,10.879,15.671,15.134,24.692   C68.841,253.212,63.913,244.864,60.534,234.968z" fill-rule="evenodd"/>
	<path clip-rule="evenodd" d="M234.171,238.154c4.728,2.979,8.16,11.478,10.354,14.337   C238.382,250.405,237.196,243.361,234.171,238.154z" fill-rule="evenodd"/>
	<path clip-rule="evenodd" d="M270.811,243.729c0.797,0,1.593,0,2.39,0c-0.481,3.136,1.174,4.137,2.39,5.576   c-0.905,1.75-2.664,2.646-3.187,4.778C269.128,252.072,272.692,247.603,270.811,243.729z" fill-rule="evenodd"/>
	<path fill="#FFFFFF" clip-rule="evenodd" d="M189.568,246.916c4.954,0.581,5.917,4.695,3.186,7.965   C189.115,254.492,186.67,249.153,189.568,246.916z" fill-rule="evenodd"/>
	<path fill="#FFFFFF" clip-rule="evenodd" d="M135.405,250.898c1.549,4.37-2.126,6.409-5.575,7.965   C128.729,256.103,129.91,249.627,135.405,250.898z" fill-rule="evenodd"/>
	<path clip-rule="evenodd" d="M35.046,253.288c4.254,14.613,13.474,28.452,16.727,41.418   C43.581,281.781,38.395,270.219,35.046,253.288z" fill-rule="evenodd"/>
	<path clip-rule="evenodd" d="M245.323,253.288c2.592,2.109-2.167,9.099-7.168,8.761   C240.287,258.872,243.973,257.248,245.323,253.288z" fill-rule="evenodd"/>
	<path clip-rule="evenodd" d="M290.723,259.66c4.455-1.27,0.312,6.061,3.982,5.575   C292.594,269.354,289.75,263.579,290.723,259.66z" fill-rule="evenodd"/>
	<path clip-rule="evenodd" d="M168.062,269.218c-2.436,0.578-2.343-1.374-4.779-0.797   C163.47,265.873,168.45,266.596,168.062,269.218z" fill-rule="evenodd"/>
	<path clip-rule="evenodd" d="M289.927,269.218c3.222,0.897-0.061,4.646,0,7.169   c2.981-0.092,7.697,3.502,6.372,7.168c-2.823-0.324-1.574-3.483-4.779-1.593c1.811-2.863-0.596-5.27-2.39-2.39   c-2.231-0.424-1.473-3.838-2.39-5.575C289.415,274.016,288.894,270.84,289.927,269.218z" fill-rule="evenodd"/>
	<path clip-rule="evenodd" d="M172.044,270.015c-0.097,2.026-1.159,3.089-3.186,3.186   C168.312,270.529,170.195,270.288,172.044,270.015z" fill-rule="evenodd"/>
	<path clip-rule="evenodd" d="M162.487,270.811c0.796,0,1.593,0,2.389,0c2.45,3.88-1.32,7.44-3.982,8.762   c-0.066-1.261,0.383-3.038-0.796-3.186c0.628-2.986,2.786-0.05,3.982-1.594C164.673,272.342,161.893,273.263,162.487,270.811z" fill-rule="evenodd"/>
	<path clip-rule="evenodd" d="M182.399,272.403c0.074,2.464-2.405,2.374-4.779,2.39   C177.594,272.378,180.415,272.809,182.399,272.403z" fill-rule="evenodd"/>
	<path clip-rule="evenodd" d="M70.092,273.2c-3.841,5.186-6.843,11.211-10.354,16.727   C59.444,283.784,63.703,275.312,70.092,273.2z" fill-rule="evenodd"/>
	<path clip-rule="evenodd" d="M173.638,273.997c3.079,3.252-1.44,12.238-7.168,11.947   C169.44,282.45,173.657,278.087,173.638,273.997z" fill-rule="evenodd"/>
	<path clip-rule="evenodd" d="M183.992,282.759c-1.892-0.498-3.708-1.071-3.982-3.187   C182.16,277.517,183.853,280.409,183.992,282.759z" fill-rule="evenodd"/>
	<path clip-rule="evenodd" d="M289.13,281.165c3.308,0.619,1.418,8.492,0,9.559   c-3.113-4.134-3.665-0.631-7.965,0c-0.639-3.294,2.893-2.417,2.39-5.576c2.959,0.792,2.082,1.701,5.575,0.797   c0.984-2.577-2.577-0.608-1.593-3.186C288.247,282.405,288.962,282.059,289.13,281.165z" fill-rule="evenodd"/>
	<path clip-rule="evenodd" d="M166.469,282.759c-0.941,1.183-0.689,3.559-3.186,3.186   C161.126,284.072,164.597,280.602,166.469,282.759z" fill-rule="evenodd"/>
	<path clip-rule="evenodd" d="M159.3,283.555c0.98,0.348,1.636,1.02,1.593,2.39   c-1.657,0.45-2.574,2.275-3.982,0.797C156.213,284.184,158.977,285.09,159.3,283.555z" fill-rule="evenodd"/>
	<path fill="#7E543A" clip-rule="evenodd" d="M187.975,283.555c1.577,2.909-1.399,3.884-2.39,6.372   C182.057,288.538,185.98,284.33,187.975,283.555z" fill-rule="evenodd"/>
	<path clip-rule="evenodd" d="M249.305,283.555c3.383,2.301,1.868,7.205,2.39,8.762   c-0.197,0.865-1.584,0.54-1.593,1.593C246.828,291.841,249.901,286.144,249.305,283.555z" fill-rule="evenodd"/>
	<path fill="#7E543A" clip-rule="evenodd" d="M155.318,292.316c0.641,0.422,1.293,0.831,2.39,0.797   c-0.424,2.231-3.837,1.472-5.576,2.389C152.209,293.455,155.241,294.363,155.318,292.316z" fill-rule="evenodd"/>
	<path clip-rule="evenodd" d="M30.267,294.706c6.135,3.72,4.642,18.312,12.744,17.522   c-1.155,1.501-1.171,4.14-3.186,4.779C33.763,312.45,33.409,302.184,30.267,294.706z" fill-rule="evenodd"/>
	<path fill="#F4DC00" clip-rule="evenodd" d="M294.706,294.706c0.557,2.945-1.26,3.519-3.982,3.186   C290.873,295.651,292.109,294.499,294.706,294.706z" fill-rule="evenodd"/>
	<path clip-rule="evenodd" d="M82.04,298.688c-1.847,0.254-3.058-0.128-3.982-0.797   C78.204,295.445,82.347,296.221,82.04,298.688z" fill-rule="evenodd"/>
	<path fill="#F4DC00" clip-rule="evenodd" d="M296.299,301.078c0.865,0.196,0.54,1.584,1.593,1.593   c-1.313,6.367-1.535,9.442-3.187,15.93c-5.604-1.275-2.312-4.089-3.186-7.965c0.709-0.618,1.799-0.856,3.186-0.796   C294.375,306.057,295.093,303.323,296.299,301.078z" fill-rule="evenodd"/>
	<path clip-rule="evenodd" d="M53.366,306.653c-5.654,4.966-7.948,13.292-11.948,19.913   C41.069,319.258,45.757,306.019,53.366,306.653z" fill-rule="evenodd"/>
	<path clip-rule="evenodd" d="M236.561,307.45c3.092,2.218,5.276,5.344,7.169,8.762   C239.75,314.882,237.933,311.388,236.561,307.45z" fill-rule="evenodd"/>
	<path clip-rule="evenodd" d="M60.534,310.636c4.321,3.987,9.361,11.243,9.558,16.727   C65.889,322.804,62.79,317.142,60.534,310.636z" fill-rule="evenodd"/>
	<path clip-rule="evenodd" d="M278.776,315.415c-3.263,0.72-0.821,7.144-5.575,6.372   c1.854-3.125-0.975-2.961-0.797-6.372C275.975,317.104,275.96,313.615,278.776,315.415z" fill-rule="evenodd"/>
	<path clip-rule="evenodd" d="M288.334,319.397c2.098-0.24,2.613,1.103,2.389,3.186c-0.796,0-1.593,0-2.389,0   C288.334,321.521,288.334,320.46,288.334,319.397z" fill-rule="evenodd"/>
	<path clip-rule="evenodd" d="M281.166,320.99c3.259,0.367,1.13,7.629-2.39,6.372   C277.138,325.326,281.194,323.882,281.166,320.99z" fill-rule="evenodd"/>
	<path clip-rule="evenodd" d="M222.224,321.787c0.797,0,1.593,0,2.39,0c0.737,3.222,1.836,8.496-2.39,8.762   C223.301,327.103,222.598,325.494,222.224,321.787z" fill-rule="evenodd"/>
	<path clip-rule="evenodd" d="M41.418,328.955c3.428,6.453,9.462,14.356,9.558,21.506   C47.166,346.222,42.411,338.408,41.418,328.955z" fill-rule="evenodd"/>
	<path clip-rule="evenodd" d="M251.695,329.752c5.72,4.104,6.758,12.889,13.541,15.93   c-1.915,3.737,2.795,4.981,4.778,7.169c0.934-0.129,0.672-1.452,0.797-2.39c7.246,4.396-4.933,9.449-0.797,15.931   c-0.709,0.618-1.799,0.855-3.186,0.796c-0.178,2.377,2.94,2.708,0.796,4.779c-0.979-0.348-1.636-1.02-1.593-2.39   c-5.059,3.172-4.833,11.628-12.744,11.947c-0.235-3.422,3.779-2.592,4.779-4.778c-2.208-2.8-5.538,2.867-7.169,0.796   c0.029-3.954,5.866-2.1,7.169-4.779c-0.335-1.789-4.227-0.021-4.779-1.593c1.276-2.304,2.978-0.962,4.779,0   c1.505-3.008,0.687-8.341,4.779-8.762c0.798,2.003-1.883,6.318-3.187,8.762c6.289,2.307,3.671-7.755,5.576-13.54   c0.635-1.931,2.514-2.319,2.389-3.187c-0.304-2.111-5.652-6.2-7.168-9.558C258.059,339.573,251.558,334.802,251.695,329.752z" fill-rule="evenodd"/>
	<path clip-rule="evenodd" d="M97.97,330.549c1.062,0,2.124,0,3.186,0c-1.077,2.64-1.066,6.367-4.779,6.372   C94.256,334.566,99.334,334.581,97.97,330.549z" fill-rule="evenodd"/>
	<path clip-rule="evenodd" d="M271.608,332.938c-2.174-0.072-1.604,1.326-3.187,0   C267.793,329.871,272.235,329.871,271.608,332.938z" fill-rule="evenodd"/>
	<path clip-rule="evenodd" d="M115.493,332.142c3.447,1.888-5.809,4.062-3.982,9.558   c-5.159,4.134-5.579,13.006-12.744,15.134C103.809,348.069,107.79,338.244,115.493,332.142z" fill-rule="evenodd"/>
	<path clip-rule="evenodd" d="M68.499,332.938c3.447,1.704-4.875,5.849-1.593,10.354   c-6.536,7.271-9.837,17.774-15.134,26.284C54.508,354.524,62.725,344.952,68.499,332.938z" fill-rule="evenodd"/>
	<path clip-rule="evenodd" d="M289.927,332.938c0.796,0,1.593,0,2.39,0c0.762,1.483-2.386,2.661,0,3.186   C290.778,338.865,289.061,335.224,289.927,332.938z" fill-rule="evenodd"/>
	<path clip-rule="evenodd" d="M80.447,336.921c5.417,6.265,9.45,13.914,15.93,19.115   C89.029,354.826,82.83,345.734,80.447,336.921z" fill-rule="evenodd"/>
	<path clip-rule="evenodd" d="M31.86,337.717c1.202,0.387,3.207,9.992-1.593,8.762   C29.936,342.695,30.654,339.963,31.86,337.717z" fill-rule="evenodd"/>
	<path fill="#EE3224" clip-rule="evenodd" d="M183.196,342.496c-3.771,11.894-7.542,23.787-18.32,28.674   c-19.599,0.482-25.531-12.7-29.471-27.877c6.348,1.748,13.275,2.393,19.116,7.965c2.265,6.557,0.338,13.416,7.168,14.337   C162.954,352.441,169.947,341.038,183.196,342.496z" fill-rule="evenodd"/>
	<path clip-rule="evenodd" d="M248.509,348.071c4.279,1.868,6.328,7.918,0,8.762   C250.178,352.555,246.339,351.85,248.509,348.071z" fill-rule="evenodd"/>
	<path clip-rule="evenodd" d="M199.922,348.868c4.049,2.315,1.085,14.506-3.983,10.354   c0.629-1.761,2.786-1.993,3.983-3.187c-0.246-1.878-2.766-1.481-2.39-3.982C199.732,352.396,198.28,349.085,199.922,348.868z" fill-rule="evenodd"/>
	<path fill="#F1E5C8" clip-rule="evenodd" d="M302.671,350.461c2.173-0.58,1.603,1.583,3.186,1.593   c0.438,1.767-1.521,1.135-1.593,2.39c2.396,3.507,5.359,2.561,10.354,2.39c-0.786,4.343-10.373,4.088-11.947,0.797   c-2.391,3.528,3.709,5.789,7.168,3.982c-1.045,4.15-10.521,7.073-11.947,1.593c-2.521,2.316,0.964,5.363,3.982,4.779   c0.373,2.496-2.003,2.245-3.186,3.186c-2.027-0.097-3.089-1.159-3.187-3.186c-3.129,0.763-0.723,4.759,2.39,3.982   c-0.117,1.741-2.007,1.71-3.982,1.593c-1.979-0.94-0.8-5.042-3.187-5.575c-2.428,0.974,1.165,3.04-0.796,3.982   c-1.877-0.018-2.346,1.372-4.779,0.796c0.224-2.696,1.268-4.573,0.797-7.965C295.54,364.038,300.326,358.471,302.671,350.461z" fill-rule="evenodd"/>
	<path clip-rule="evenodd" d="M75.668,354.443c1.286-0.225,1.371,0.753,2.389,0.797   c-0.922,2.529-0.421,6.481-3.982,6.372C72.346,359.484,75.526,357.166,75.668,354.443z" fill-rule="evenodd"/>
	<path fill="#F1E5C8" clip-rule="evenodd" d="M5.576,355.24c3.136,0.05,0.542,5.829,3.982,5.575   c3.14,0.22,2.436-3.405,5.575-3.186c2.154,4.749,6.112,7.694,12.744,7.965c0.7,2.949,2.917,6.633,0,8.762   c-2.083-0.307-2.225-2.555-5.575-1.594c-2.21-1.191,1.382-3.258-0.797-3.982c-2.525,2.722-4.792,8.359-9.558,6.372   c1.817-3.758,7.31-3.84,7.965-8.761c-4.381,1.375-8.291,9.293-12.744,5.575c0.548-3.435,6.385-1.58,7.168-4.779   c-2.785-1.953-6.013,2.456-10.354,1.593c-0.335-1.522-0.289-3.428-2.39-3.186c2.008-2.924,3.443-1.468,7.965-1.593   c-0.316-2.871-3.941-2.431-5.576-3.982C4.245,358.157,4.94,356.729,5.576,355.24z" fill-rule="evenodd"/>
	<path clip-rule="evenodd" d="M125.051,356.036c4.673-0.862,5.299,6.671,0.796,6.372   C125.366,360.501,124.702,358.774,125.051,356.036z" fill-rule="evenodd"/>
	<path clip-rule="evenodd" d="M271.608,360.815c0.796,0,1.593,0,2.389,0c0,1.062,0,2.124,0,3.187   C271.338,364.802,271.385,362.896,271.608,360.815z" fill-rule="evenodd"/>
	<path clip-rule="evenodd" d="M60.534,363.205c4.487,6.133,8.271,12.969,11.948,19.913   C67.452,377.528,62.871,371.488,60.534,363.205z" fill-rule="evenodd"/>
	<path clip-rule="evenodd" d="M102.749,363.205c4.521,7.467,13.243,14.845,16.727,20.709   C111.339,379.571,105.805,372.628,102.749,363.205z" fill-rule="evenodd"/>
	<path clip-rule="evenodd" d="M92.395,366.392c-3.976,6.113-10.086,10.092-12.744,17.522   c-3.782-2.364-3.244,2.685-7.168,2.39c2.26-5.772,9.958-12.825,14.337-19.116c0.852,2.976-1.978,2.271-1.593,4.779   C88.541,371.033,88.535,366.78,92.395,366.392z" fill-rule="evenodd"/>
	<path clip-rule="evenodd" d="M252.492,366.392c1.4,0.191,1.815,1.37,1.593,3.186c-0.797,0-1.593,0-2.39,0   C251.358,367.912,252.241,367.468,252.492,366.392z" fill-rule="evenodd"/>
	<path clip-rule="evenodd" d="M147.353,370.374c-7.388,6.152-10.424,16.656-19.913,20.709   C133.756,383.857,138.014,374.575,147.353,370.374z" fill-rule="evenodd"/>
	<path clip-rule="evenodd" d="M180.01,371.967c5.518,3.514,9.947,9.609,10.354,15.93   C186.561,385.684,183.844,377.946,180.01,371.967z" fill-rule="evenodd"/>
	<path clip-rule="evenodd" d="M59.738,375.152c3.08-0.229,4.98,8.195,0.796,7.966   C61.092,379.639,59.18,378.632,59.738,375.152z" fill-rule="evenodd"/>
	<path clip-rule="evenodd" d="M268.421,376.746c1.286-0.225,1.371,0.752,2.39,0.796   c-0.695,1.164-0.633,3.085-3.187,2.39C267.524,378.503,268.6,378.252,268.421,376.746z" fill-rule="evenodd"/>
	<path clip-rule="evenodd" d="M221.428,380.729c4.423,1.649-0.982,8.073,0.796,14.337   c-2.115-0.009-4.549,0.301-5.575-0.797C221.313,392.826,219.592,384.999,221.428,380.729z" fill-rule="evenodd"/>
	<path clip-rule="evenodd" d="M263.642,380.729c1.265,4.528-5.473,3.608-5.575,0.796   C261.026,380.977,260.149,381.141,263.642,380.729z" fill-rule="evenodd"/>
	<path clip-rule="evenodd" d="M269.218,381.524c0.057,2.387-2.344,4.042-3.982,2.39   C265.963,382.519,266.716,381.146,269.218,381.524z" fill-rule="evenodd"/>
	<path fill="#F4DC00" clip-rule="evenodd" d="M273.201,383.914c1.286-0.225,1.371,0.753,2.39,0.797   c-0.098,2.026-1.159,3.089-3.187,3.186C272.15,386.05,272.532,384.839,273.201,383.914z" fill-rule="evenodd"/>
	<path clip-rule="evenodd" d="M262.049,385.507c2.281-0.156,4.347-0.099,3.982,2.39   C263.751,388.054,261.685,387.996,262.049,385.507z" fill-rule="evenodd"/>
	<path clip-rule="evenodd" d="M159.3,399.845c-0.596-4.048,0.794-6.109,3.187-7.169   c-0.462-2.192-1.983-3.327-2.39-5.575C165.512,385.834,166.419,399.685,159.3,399.845z" fill-rule="evenodd"/>
	<path clip-rule="evenodd" d="M101.952,388.693c0.797,0,1.593,0,2.39,0c0.972,1.205,1.564,6.86,0,7.965   C101.302,396.246,103.295,390.802,101.952,388.693z" fill-rule="evenodd"/>
	<path clip-rule="evenodd" d="M71.685,391.879c-0.873,2.845-2.731,4.703-5.575,5.576   C66.983,394.61,68.841,392.752,71.685,391.879z" fill-rule="evenodd"/>
	<path clip-rule="evenodd" d="M83.633,392.676c6.385,6.359,10.227,15.261,17.523,20.709   c-0.941,0.917-2.815,0.901-4.779,0.797C94.131,405.034,81.581,401.284,83.633,392.676z" fill-rule="evenodd"/>
	<path clip-rule="evenodd" d="M191.161,394.269c-9.091,7.37-15.035,17.888-26.285,23.099   C173.273,407.69,180.426,400.461,191.161,394.269z" fill-rule="evenodd"/>
	<path clip-rule="evenodd" d="M122.662,396.658c-6.063,4.87-10.426,15.529-17.523,16.727   C110.346,407.176,113.994,399.407,122.662,396.658z" fill-rule="evenodd"/>
	<path clip-rule="evenodd" d="M249.305,396.658c0,0.797,0,1.593,0,2.39c-1.411-0.182-3.988,0.803-3.186-1.593   C246.828,396.836,247.918,396.599,249.305,396.658z" fill-rule="evenodd"/>
	<path fill="#F4DC00" clip-rule="evenodd" d="M261.252,399.048c2.506-0.912,1.936,1.25,3.187,1.593   c-3.324,0.394-0.931,6.504-5.575,5.575C259.066,403.232,260.783,401.764,261.252,399.048z" fill-rule="evenodd"/>
	<path clip-rule="evenodd" d="M246.916,402.233c-0.552,2.634-1.893,4.479-2.39,7.169   C239.521,408.741,244.487,402.795,246.916,402.233z" fill-rule="evenodd"/>
	<path clip-rule="evenodd" d="M78.854,409.402c1.996-0.138,1.933,1.783,3.186,2.39   c-0.953,3.778-8.204,5.795-10.354,1.593C74.021,408.73,78.131,415.232,78.854,409.402z" fill-rule="evenodd"/>
	<path clip-rule="evenodd" d="M202.312,414.182c0.254,1.847-0.128,3.058-0.796,3.982   c-1.837,0.243-0.885-2.302-2.39-2.39C199.317,414.373,200.496,413.959,202.312,414.182z" fill-rule="evenodd"/>
	<path clip-rule="evenodd" d="M196.736,418.96c-0.003,3.189,0.418,5.954,3.982,5.576   c-1.327,1.582,0.072,1.013,0,3.186c-3.115-1.664-5.713-3.845-6.372-7.965c-2.142,1.575-3.925,3.509-7.965,3.186   c0.179-2.74,3.283-2.558,4.779-3.982c-0.204-1.653-3.5-0.217-3.982-1.593C190.145,412.709,192.281,420.081,196.736,418.96z" fill-rule="evenodd"/>
	<path clip-rule="evenodd" d="M123.458,416.571c2.256,0.83,3.319,0.83,5.576,0   c0.155,2.05-0.996,8.873-5.576,8.761C124.511,421.758,125.775,419.74,123.458,416.571z" fill-rule="evenodd"/>
	<path clip-rule="evenodd" d="M204.701,416.571c2.303,0.352,3.631,1.679,3.982,3.982   c-3.254-0.24,0.134,1.103-0.796,3.186C203.436,423.102,207.5,418.86,204.701,416.571z" fill-rule="evenodd"/>
	<path clip-rule="evenodd" d="M178.417,418.96c2.807,1.177,3.522,4.443,7.168,4.779   c-2.632,2.321-6.169-1.23-7.168-3.186c-2.733,0.557-5.497,4.079-7.965,2.389C171.485,419.994,176.25,420.776,178.417,418.96z" fill-rule="evenodd"/>
	<path clip-rule="evenodd" d="M146.557,421.35c-2.586-0.462-3.706,0.543-5.576,0.797   c0.518,0.81,1.832,0.823,1.593,2.39c-2.87-0.316-5.075-1.298-5.575-3.982C140.674,421.967,145.458,417.359,146.557,421.35z" fill-rule="evenodd"/>
	<path clip-rule="evenodd" d="M135.405,423.739c1.249,2.737-5.333,3.78-4.779,0.797   C131.568,423.619,133.442,423.635,135.405,423.739z" fill-rule="evenodd"/>
	<path fill="#F4DC00" clip-rule="evenodd" d="M163.283,431.704c-1.625,1.601-1.562-0.352-3.186-0.796   C160.241,428.598,163.883,428.988,163.283,431.704z" fill-rule="evenodd"/>
	<path fill="#F4DC00" clip-rule="evenodd" d="M143.371,431.704c-0.178,2.478-3.964,1.346-6.372,1.594   C137.415,430.368,141.286,430.899,143.371,431.704z" fill-rule="evenodd"/>
	<path fill="#F4DC00" clip-rule="evenodd" d="M221.428,434.094c-2.655,0-5.311,0-7.965,0   C214.069,431.974,221.565,429.777,221.428,434.094z" fill-rule="evenodd"/>
	<path fill="#4C721D" clip-rule="evenodd" d="M223.021,436.483c-37.17,0-74.34,0-111.511,0   c1.41-3.887,16.503-1.671,24.692-1.593C162.917,435.144,203.655,434.879,223.021,436.483z" fill-rule="evenodd"/>
	<path clip-rule="evenodd" d="M240.543,436.483c-5.841,0-11.682,0-17.522,0   c-19.366-1.604-60.104-1.34-86.819-1.593c-8.189-0.078-23.282-2.294-24.692,1.593c-1.327,0-2.655,0-3.982,0   c-2.891-4.277-12.651-1.686-19.116-2.39c2.287-8.748-11.446-8.135-15.133-13.54c-2.332-0.208-2.447,1.801-4.779,1.593   c0.219-7.375-7.287-11.096-6.372-21.506c-6.669-0.5-6.099-8.238-12.744-8.762c0.963-11.968-10.764-17.822-11.151-31.063   c-3.798,0.45-1.95,6.547-7.965,4.779c2.749,5.409,1.064,10.991-4.779,11.947c-2.989,0.6-1.737-3.042-3.983-3.186   C11.344,382.414,4.636,371.18,0,367.984c0-1.593,0-3.187,0-4.779c1.624-0.444,1.562-2.396,3.186-0.797   c-0.154-3.87-0.181-7.614,1.593-9.558c1.876-0.018,2.345,1.372,4.779,0.797c2.471,2.133-2.088,3.028,0,4.778   c2.5,0.377,2.104-2.144,3.982-2.39c-2.487-2.823-2.627-7.993-4.779-11.15c4.092-7.06,10.85-11.452,12.744-20.709   c2.509-0.893,1.804-0.072,4.779,0c-4.866-4.824-3.899-12.487-4.779-19.913c1.665,0.338,2.109-0.546,3.186-0.796   c1.838-13.655,0.092-24.721-3.982-35.843c6.258-0.899,7.491-9.301,7.168-14.337c4.042,1.386,1.853-3.457,4.779-3.187   c-2.802-11.181,2.264-20.085,0.796-29.47c12.224-7.585,14.685-19.695,13.541-34.25c13.511-6.401,21.169-18.656,23.099-36.639   c8.354-1.47,12.249-7.398,14.337-15.133c11.069-4.064,13.024-17.244,22.302-23.099c0.385-2.509-2.445-1.803-1.593-4.779   c12.012-0.135,18.346-12.307,27.081-18.32c-5.463-15.511-12.412-29.537-25.488-37.436c4.173-3.381,8.809,4.436,12.744,6.372   c1.902-1.443,0.449-6.237,0-7.965c4.284-8.155-1.058-19.327-3.186-23.098c7.928,2.161,13.047,7.131,16.727,13.541   c2.486-12.931-0.827-22.891-3.982-33.453c9.314,2.898,13.192,11.233,16.727,19.913c2.785-9.368,9.623-18.237,11.151-26.285   c3.103,0.083,2.913,3.459,3.186,6.372c3.877,7.008,8.842,12.929,10.354,22.302c3.485-3.152,4.212-9.062,8.762-11.151   c-1.49-2.907-0.401-6.329,1.593-7.965c0.795,10.199,2.92,24.736,3.186,35.046c7.152-2.937,10.258-9.92,17.523-12.744   c-1.709,7.052-7.174,10.349-9.558,16.727c3.717,1.307,6.243-5.424,10.354-6.372c-6.753,13.957-10.084,31.333-21.505,40.622   c1.899,2.208,4.306,2.613,1.593,5.576c2.027,0.411,3.089,1.357,3.186-1.593c10.288,2.457,14.019,11.469,19.913,18.319   c6.875-0.502,9.686,3.058,11.948,7.168c5.568-1.055,5.669,3.358,9.558,3.982c-0.791,10.88,10.133,10.045,12.744,17.523   c1.919,0.326,1.731-1.455,3.982-0.797c3.866,11.533,11.699,19.099,19.912,26.285c-2.988,10.497,5.89,15.827,12.744,19.116   c-1.493,4.981,0.982,11.225,4.779,15.133c-0.524,1.069-1.702,1.484-3.187,1.593c4.934,8.43,13.292,16.535,16.727,28.674   c-2.429,2.369-1.892,10.076-0.796,13.54c0.372,2.497-2.003,2.245-3.187,3.187c0.181,1.147,2.378,0.277,2.39,1.593   c-3.128,6.632,3.171,10.141,4.779,16.727c1.747,7.151-1.379,15.899,3.186,23.896c-4.424,6.342-2.713,16.805,0,23.895   c-6.38,10.179-7.358,28.112,3.983,35.843c-0.263,1.861-0.958,3.291-1.594,4.779c2.719,1.529,4.526,3.97,4.779,7.965   c2.927,0.259,7.052-0.68,8.762,0.796c1.324,4.74-7.128,6.676-11.947,11.151c-3.712,3.446-7.116,12.782-14.338,5.575   c-1.932,1.254-3.401,2.971-7.168,2.39c-1.495,3.55-2.554,7.536-2.39,12.744c-10.095,1.322-11.978,10.856-17.523,16.727   c-0.794,3.449,0.89,4.421,1.594,6.372c-3.242,4.988-10.511,5.951-14.338,10.354c-0.325,1.919,1.455,1.731,0.797,3.982   c-5.142,3.048-11.01,5.119-14.337,7.966C237.858,434.922,241.382,433.521,240.543,436.483z M186.382,73.278   c2.332-5.622,9.931-13.616,6.372-19.913c1.19-1.2,4.541-0.238,3.983-3.186c-3.695-0.575-8.358,4.24-8.762,9.558   c3.009-0.177,2.277-4.095,4.779-4.779c-2.862,4.027-3.989,9.439-5.575,12.744c-2.324,0.2-2.748-1.5-3.982-2.39   c-0.636,1.488-1.331,2.917-1.593,4.779c2.324,0.199,2.748-1.5,3.982-2.39C185.497,70.379,183.993,71.916,186.382,73.278z    M148.946,26.285c6.871,1.921,1.457,4.629,3.983,7.965c-1.816-0.223-2.994,0.192-3.186,1.593c1.824,1.362,1.883,4.489,2.389,7.169   c3.206-1.891,1.956,1.269,4.779,1.593c2.163,0.57-0.57-3.756,1.593-3.186c2.646,0.925,1.256,5.534-0.796,6.372   c-2.554-0.367-2.225-3.616-4.779-3.982c-0.426,3.081,1.421,3.888,0.796,7.168c3.188,1.9,4.484,0.782,7.965,2.39   c-1.452-7.151,4.497-10.396,0.797-15.134c1.062,0,2.124,0,3.186,0c6.794-11.611-2.755-23.711-8.761-31.86   C155.068,13.821,149.316,17.362,148.946,26.285z M137.795,73.278c3.84,4.125,7.212,8.718,7.965,15.93   c5.968-0.854,13.162,1.635,15.93-0.796c-1.401-0.192-1.815-1.371-1.593-3.186c-3.774-1.286-1.843,5.231-4.779,2.39   c1.634-26.762-5.328-60.896-22.302-76.464C138.875,28.879,132.791,52.878,137.795,73.278z M164.08,64.517   c3.012-0.439,3.246-3.657,4.779-5.576c-0.688-8.841,3.733-25.143,8.762-33.453c-0.418,9.008-9.762,19.585-4.779,26.285   c-3.496-0.575-3.186,2.656-3.186,5.576c4.87-3.095,7.27-8.661,12.744-11.151c0.217-10.041-2.688-16.959-3.186-26.285   C170.677,31.495,160.758,45.773,164.08,64.517z M122.662,58.941c2.127,3.788,10.932,9.065,12.744,4.779   c-3.499-2.102,0.546-10.345-3.982-11.151c-0.136,1.192,0.285,2.939-0.796,3.186c0.89-4.076-3.172-3.2-3.186-6.372   c2.726-1.299,2.394,0.095,3.982,1.593c0.961-1.238,2.545-3.104,0.796-4.779c-2.505-0.913-1.935,1.25-3.186,1.593   c-0.167-4.628-4.249-9.536-3.983-11.948c2.48,1.769,3.455,5.041,3.983,8.762c1.82-0.653,1.509-1.797,3.186-3.982   c-3.671-2.182-6.079-9.835-11.151-7.965C126.772,40.712,118.716,51.917,122.662,58.941z M163.283,89.208   c3.925-0.179,9.407,0.987,12.744,0c1.572-20.199,9.867-33.675,17.523-47.79c1.222-0.191,0.117-1.312-0.797-1.593   C179.991,52.432,157.906,63.719,163.283,89.208z M156.911,55.755c1.417,0.708,2.024,2.224,4.779,1.593   C162.005,54.697,157.398,52.902,156.911,55.755z M157.708,59.738c-0.777,3.208,4.76,3.208,3.982,0   C160.173,58.245,159.689,59.65,157.708,59.738z M137.795,88.412c0.593,1.796,4.468,0.312,6.372,0.796   c-3.899-12.298-12.443-24.193-23.099-27.081c6.6,7.472,9.902,18.241,15.134,27.081c0.327-6.444-6.369-16.984-7.965-21.505   C132.925,73.103,134.945,81.172,137.795,88.412z M156.911,66.906c2.705,1.373,4.931-0.353,4.779-3.982c-1.062,0-2.124,0-3.186,0   C159.187,65.465,157.25,65.387,156.911,66.906z M160.894,71.685c2.622,0.388,3.345-4.592,0.796-4.779   C160.773,67.848,160.789,69.722,160.894,71.685z M179.213,80.447c3.857,0.14,4.426-3.008,5.575-5.576   c-1.519-0.339-1.441-2.276-3.982-1.593C181.999,76.841,180.108,77.261,179.213,80.447z M157.708,78.854   c3.986,1.509,4.439-5.476,0.796-4.779C158.238,76.895,156.313,76.033,157.708,78.854z M212.666,425.332   c-0.672,1.505-4.106,4.318-4.779,3.187c1.204-1.982,2.73-3.642,5.576-3.982c0.401-2.601-3.961-1.688-1.593-3.982   c2.137,3.407,6.276,1.606,8.762-0.797c-7.708-4.986-17.357-13.023-18.32-19.912c8.227,6.787,12.431,19.694,24.692,15.93   c1.558-7.639,11.464-17.595,17.522-20.709c-4.457,8.645-15.894,13.847-15.133,23.099c-1.365,1.374-3.133-1.171-3.187,2.39   c-0.358,2.217,4.342-0.625,3.982,1.593c-0.645,3.868-5.758,3.269-7.168,6.372c-0.354-1.506,1.083-4.801-1.593-3.982   c-1.398,3.381-6.813,2.745-7.965,6.372c3.406-0.046,5.834-1.069,8.761-1.594c1.746,2.335,2.886,3.507,6.372,2.39   c-0.044,1.019-1.021,1.104-0.797,2.39c1.594,0,3.187,0,4.779,0c0.975-4.426-3.649-3.253-5.575-4.779   c1.457-4.118,8.595-2.556,10.354-6.372c-1.388-0.735-4.275,0.027-3.982-2.389c4.713-0.466,7.598,0.897,10.354,2.389   c1.953-1.061-1.436-2.403,0.796-3.186c2.155,2.691,5.143,2.534,6.372-0.797c-3.92-3.616-9.737,4.137-11.15-1.593   c2.817-0.7,4.104,2.046,4.778-0.796c-2.372-2.169,1.628-4.699,3.983-4.779c0.533-2.974-2.207-4.674,1.593-4.779   c-0.163,2.492,0.537,5.848-0.797,7.169c1.657,0.467,2.574,1.674,3.982,2.39c1.213-3.74,2.061-9.357,7.965-5.576   c1.263-4.713-4.183-2.72-5.575-4.779c-0.926,1.51-2.214,6.752-4.779,3.983c2.074-4.299,6.742-6.003,8.762-10.354   c-3.021-2.819-6.285-5.397-8.762-8.762c3.438,0.015,2.936,3.968,6.372,3.982c1.893-0.849-1.707-3.669,0.797-4.779   c1.076,0.782,1.592,2.125,2.39,3.187c-1.164,0.694-3.085,0.632-2.39,3.186c2.809-0.469,3.563-0.54,6.372-1.593   c0.598-2.722-3.236-1.012-2.39-3.982c3.303-0.913,3.104,1.675,5.575,1.593c0.868-1.533-1.056-5.053,3.187-4.779   c0.984-2.577-2.577-0.608-1.593-3.186c1.687-1.765,3.396-3.507,4.778-5.576c2.064,2.353,3.678,0.204,5.576,2.39   c-2.305-2.058,1.726-6.306-1.594-6.372c-2.162-0.569,0.57,3.756-1.593,3.187c-1.748-0.725,2.352-5.658-2.39-4.779   c-2.021,0.567,1.927,4.547-1.593,4.779c-0.913-1.008-1.6-6.28,0-7.169c1.907,0.566,2.933,0.374,6.372,0.797   c0.628-3.282-3.813-1.497-3.186-4.779c0.995-1.439,5.768-3.197,6.372-2.39c0.8,2.659-1.105,2.612-3.187,2.39   c0.58,3.836,2.862,1.019,4.779,3.187c1.925-9.276-9.922-14.874-8.762-26.285c0.903-8.88,8.436-17.636,19.116-16.727   c1.222-6.532-2.139-8.481-4.779-11.15c-2,1.451-1.748,5.154-5.575,4.778c-0.104-3.819,4.396-3.038,3.982-7.168   c-1.94-0.941-5.04,1.791-7.169,0c0-0.797,0-1.594,0-2.39c2.907-0.708,4.243,1.406,5.576,0c-3.051-7.305-7.905-12.804-11.151-19.913   c-10.196,5.999-11.448,20.943-21.506,27.081c2.67-11.594,18.337-20.711,17.523-35.842c-5.077-5.017-12.135-12.285-13.541-18.32   c2.66,2.65,4.788,5.833,6.372,9.559c1.506,0.179,1.758-0.898,3.187-0.797c1.856,3.719,4.498,6.652,7.965,8.762   c5.46-5.957,7.781-15.052,12.744-21.506c0.683-2.541-1.254-2.463-1.593-3.982c2.533-0.892,7.6-6.939,3.186-9.558   c-1.853,0.536-0.6,4.179-3.982,3.186c0.003-0.799-0.646-0.948-0.797-1.593c1.047-2.14,3.512-2.86,4.779-4.779   c-8.229-3.984-10.483-13.942-15.93-20.709c-2.979,2.353-4.118,0.04-6.372,0.797c-3.592,9.42-7.768,22.495-15.931,24.691   c5.192-6.225,8.241-14.593,13.541-20.709c-1.191-0.136-2.939,0.284-3.187-0.797c13.763-11.993-1.844-27.546-11.15-35.046   c-3.046,6.512-7.312,11.805-11.947,16.727c-1.478-3.373,5.069-4.799,4.778-9.558c-4.78,0.265-3.113,6.976-7.168,7.965   c1.149-5.646,3.35-9.079,7.168-13.541c0.851,0.743,0.248,2.938,2.39,2.39c1.979-2.722,0.27-4.855,2.39-7.965   c-3.324-4.642-7.528-8.402-10.354-13.541c7.119,0.315,6.81,8.058,11.151,11.151c1.388-2.72,3.129-3.79,5.575-1.593   c1.048-2.139,2.139-4.234,3.186-6.372c-6.178-2.39,0.845-11.014,0-11.948c-0.728,2.166-1.48-2.122-3.982-0.796   c-3.011,2.117-0.458,5.807-3.186,7.168c-2.673-1.42-0.414-3.646-1.593-7.168c2.251,0.658,2.063-1.123,3.982-0.796   c0-2.124,0-4.248,0-6.372c-1.976,0.117-3.865,0.148-3.982-1.593c0.401-2.501-1.878-3.254,0.796-3.982   c0.812,2.534,1.543,5.142,4.779,3.186c1.114,3.109,3.351,8.53,7.168,6.372c-0.74-6.005-14.289-8.869-9.558-12.744   c-5.399-3.097-7.334-9.658-11.947-13.541c-2.21,1.191,1.382,3.258-0.797,3.982c-1.157-0.436-4.116,0.931-3.982-0.796   c2.909,0.242,3.035-4.696,1.593-6.372c-3.526-0.871-3.961,1.349-6.372,1.593c1.155-5.521-6.126-10.217-4.778-15.93   c-4.039-2.014-6.096-3.2-9.559-2.39c0.794-7.511-13.688-9.777-17.523-12.744c0.524-2.913-1.723-3.055-1.593-5.575   c-16.799-10.354-37.673-4.641-62.924-6.372c-9.046,5.822-15.063,14.673-25.488,19.116c-6.067,9.863-11.781,20.079-21.505,26.285   c0.806,6.117-6.113,4.507-4.779,11.151c-5.359-0.05-5.845,4.775-9.558,6.372c-3.223,15.894-11.642,26.59-22.302,35.046   c-0.75,10.557-1.991,13.994-2.39,21.505c-6.193,1.506-5.647,9.752-11.151,11.948c-1.64,19.155-3.761,34.932-11.948,48.586   c2.442,3.93,0.379,12.365,3.983,15.134c-0.917,13.086-7.159,27.95-0.797,39.028c12.958,4.53,19.475,22.847,10.354,34.25   c8.203,14.365,12.649,32.485,26.285,41.418c-1.381,8.815,5.058,9.811,5.576,16.727c8.559,0.729,11.664,9.364,20.709,7.169   c1.611-3.699,5.072-5.549,8.762-7.169c-0.889,5.749-8.505,4.771-8.762,11.151c4.24,0.539,6.588,2.97,10.354,3.982   c0.326-1.919-1.455-1.731-0.796-3.982c-3.485-1.162-6.041,1.414-5.576-3.982c1.963,3.348,11.292-0.672,10.354,5.575   c2.914-1.055,2.976-2.589,5.576-2.39c-1.305-3.49-8.643-5.142-5.576-10.354c3.087,5.144,7.432,9.029,11.948,12.744   c-1.015,1.109-3.902,0.347-3.982,2.39c6.1-1.275,9.978,1.308,12.744-0.797c-1.954-0.533-2.439-4.635-1.593-5.575   c2.073,3.156,3.544,2.11,6.372,3.982c-0.242-2.101,1.663-2.054,3.186-2.39c2.047,0.077,1.139,3.109,3.186,3.187   c1.113-4.367,6.066-0.344,7.965-3.187c0.125-1.231,4.029-5.507,7.168-6.372c0.767-2.891-3.579-0.669-3.186-3.186   c3-0.839,3.627,3.451,4.779,0c-9.183-4.36-17.877-13.449-19.913-22.303c6.408,8.46,13.232,16.505,22.302,22.303   c-1.742,2.351-0.835,3.225-3.186,5.575c1.65,0.474,5.232-0.984,5.575,0.797c-2.789,1.989-10.735-1.178-9.558,4.778   c2.623,0.563,1.34,5.033,5.576,3.983c2.312-2.895-2.583-3.902-3.186-6.372c6.251-0.134,14.077,2.369,19.116,0.796   c-0.941-1.979-5.042-0.799-5.576-3.186c4.17-2.036,8.273,2.146,10.354,4.778c4.014,1.437,7.859-1.908,8.762,2.39   c-1.505,0.354-4.8-1.083-3.982,1.594c1.382-0.663,8.301,2.109,8.761-0.797c-0.625-1.765-4.931,0.151-3.982-3.187   c5.124-1.907,6.359,4.221,9.558,1.594c-1.18-0.148-0.73-1.925-0.796-3.187c-1.771-0.618-4.319-0.46-4.779-2.39   c3.17,0.582,3.202,0.582,6.372,0c-0.846,6.688,3.852,7.831,8.762,8.762c-2.393-3.398-0.084-3.467,1.593-6.372   c3.156,0.246-0.891,2.767,2.39,2.39C210.205,429.735,214.308,427.026,212.666,425.332z M287.538,241.34   c0.528-1.955-0.646-7.307,1.593-9.558c-1.786-0.869-1.399-3.91-3.186-4.779c-0.5,2.421,1.02,6.861-0.797,7.965   c-3.657-1.894-0.409-6.09-1.593-10.354c2.083,0.224,3.426-0.291,3.186-2.39c-0.556-2.01-3.626,2.847-3.982-0.796   c1.709-0.946,1.859-3.451,3.187-4.779c2.454-0.595,0.971,2.746,3.982,1.593c-2.831-8.055-6.916-14.855-14.337-18.32   c2.188,2.495,2.491,10.226,6.372,6.372c-0.179,1.506,0.897,1.757,0.796,3.186c-5.352-0.573-0.946,8.612-6.372,7.965   c1.755-4.351,1.562-8.145-1.593-11.151C270.4,222.184,281.061,231.643,287.538,241.34z M273.201,193.55   c-1.094-3.75-4.493-1.681-7.169-0.796c-1.404-0.72-2.466-1.782-3.186-3.186c2.07-2.145,2.402,0.974,4.778,0.797   c1.493-1.517,0.088-2.001,0-3.983c3.347-2.075,3.283,0.652,5.576,1.593c1.1-4.179,2.07-9.362-3.982-8.762   c-0.326,1.919,1.454,1.731,0.796,3.982c-3.606-1.482-1.385,2.863-3.186,3.186c-0.797,0-1.593,0-2.39,0   c0.669-0.924,1.051-2.135,0.797-3.982c2.573,0.822,3.563-4.764,3.186-6.372c-1.418-0.476-3.308,2.334-3.982,0   c-0.244-1.836,2.301-0.885,2.39-2.389c-5.252-1.027-3.351-4.331-6.372-7.169c-3.983,3.421,1.617,6.146,0.796,11.151   c-5.592,1.841-3.317,11.55-7.168,15.133c7.004,3.085,7.88,12.298,15.134,15.134c1.991-3.487-3.561-8.747,0.796-12.744   c0,1.328,0,2.655,0,3.982c2.854,0.463,2.422-2.357,2.39-4.779c2.495-0.89,4.398,0.795,5.575-2.39   C275.846,189.812,274.951,192.971,273.201,193.55z M257.27,175.23c0.342-1.517,1.716-2.001,1.594-3.982   C256.496,170.3,255.442,174.605,257.27,175.23z M288.334,227.003c2.851-0.334,3.832-2.54,3.982-5.575   C287.849,220.033,287.463,225.551,288.334,227.003z M286.741,308.246c2.357-4.444,1.819-6.89,3.187-11.947   c-1.523-0.335-3.429-0.288-3.187-2.39c5.527,0.704,4.87-5.184,10.354-2.39c0.23-8.319,2.684-13.552-1.593-19.116   c0.223,1.816-0.191,2.995-1.593,3.187c-0.367-6.686,5.8-15.311-1.593-21.506c-4.348,5.957-6.923,15.816-10.354,23.896   c-1.461,3.438-5.365,6.253-5.576,9.558c-0.517,8.115,8.795,9.288,8.762,16.727c-0.19-0.865-1.312-1.912-1.593-0.796   C285.184,304.493,284.395,307.938,286.741,308.246z M290.723,297.892c2.723,0.333,4.539-0.24,3.982-3.186   C292.109,294.499,290.873,295.651,290.723,297.892z M294.706,309.84c-1.387-0.061-2.477,0.178-3.186,0.796   c0.874,3.876-2.419,6.689,3.186,7.965c1.651-6.487,1.873-9.562,3.187-15.93c-1.053-0.009-0.728-1.396-1.593-1.593   C295.093,303.323,294.375,306.057,294.706,309.84z M38.232,338.514c0.003-4.981-2.789,0.803-3.982-1.593   c0.088-1.505,2.633-0.553,2.39-2.39c-3.878-3.024-6.724-7.082-12.744-7.965c0.5,6.24-9.762,10.136-11.151,16.727   c-2.243,10.643,11.557,24.901,19.913,17.522c-3.172-0.014-5.61-0.762-7.168-2.39c1.053-0.009,0.728-1.396,1.593-1.593   c2.477,1.239,6.103,4.058,7.965,0c-3.828,3.242-7.134-5.52-2.389-6.372c0.228,1.388-2.544,4.275,0.796,3.982   c-1.498-6.808,4.015-6.604,7.168-8.762c-0.79-2.396-0.589-5.782-3.186-6.372c-2.125,2.137,3.923,3.526,0,5.576   c-2.853,0.463-2.421-2.357-2.39-4.779C37.219,340.687,36.649,338.523,38.232,338.514z M286.741,362.408   c10.683-2.768,12.739-9.458,15.931-19.115c-3.646-1.257-1.473,3.306-3.982,3.186c-2.357-2.812-1.314-5.924,0.796-7.965   c-2.179-2.518-3.396,2.517-5.575,0c0.714-1.675,1.238-3.541,2.39-4.779c-2.376-0.811-3.504-2.868-5.576-3.982   C276.544,330.512,273.164,355.854,286.741,362.408z M285.945,364.798c0.471,3.392-0.573,5.269-0.797,7.965   c2.434,0.576,2.902-0.813,4.779-0.796c1.961-0.942-1.632-3.009,0.796-3.982c2.387,0.533,1.207,4.635,3.187,5.575   c1.976,0.117,3.865,0.148,3.982-1.593c-3.112,0.776-5.519-3.22-2.39-3.982c0.098,2.026,1.159,3.089,3.187,3.186   c1.183-0.94,3.559-0.689,3.186-3.186c-3.019,0.584-6.503-2.463-3.982-4.779c1.427,5.48,10.902,2.558,11.947-1.593   c-3.459,1.807-9.559-0.454-7.168-3.982c1.574,3.291,11.161,3.546,11.947-0.797c-4.995,0.171-7.959,1.117-10.354-2.39   c0.072-1.255,2.031-0.623,1.593-2.39c-1.583-0.01-1.013-2.173-3.186-1.593C300.326,358.471,295.54,364.038,285.945,364.798z    M3.982,360.02c1.634,1.552,5.26,1.111,5.576,3.982c-4.522,0.125-5.957-1.331-7.965,1.593c2.101-0.242,2.054,1.663,2.39,3.186   c4.342,0.863,7.569-3.546,10.354-1.593c-0.784,3.199-6.621,1.345-7.168,4.779c4.454,3.718,8.363-4.2,12.744-5.575   c-0.655,4.921-6.148,5.003-7.965,8.761c4.766,1.987,7.032-3.65,9.558-6.372c2.179,0.725-1.414,2.791,0.797,3.982   c3.35-0.961,3.493,1.287,5.575,1.594c2.917-2.129,0.7-5.812,0-8.762c-6.632-0.271-10.59-3.216-12.744-7.965   c-3.14-0.22-2.436,3.405-5.575,3.186c-3.44,0.254-0.847-5.525-3.982-5.575C4.94,356.729,4.245,358.157,3.982,360.02z    M272.404,387.896c2.027-0.097,3.089-1.159,3.187-3.186c-1.019-0.044-1.104-1.021-2.39-0.797   C272.532,384.839,272.15,386.05,272.404,387.896z M258.864,406.216c4.645,0.929,2.251-5.182,5.575-5.575   c-1.251-0.343-0.681-2.505-3.187-1.593C260.783,401.764,259.066,403.232,258.864,406.216z M241.34,427.722   c-1.864-0.204-0.459-3.499,0-3.982c-1.062,0-2.124,0-3.186,0c-0.918,0.941-0.902,2.815-0.797,4.779   C239.86,427.973,240.613,428.61,241.34,427.722z M160.097,430.908c1.624,0.444,1.562,2.396,3.186,0.796   C163.883,428.988,160.241,428.598,160.097,430.908z M136.999,433.298c2.408-0.248,6.194,0.884,6.372-1.594   C141.286,430.899,137.415,430.368,136.999,433.298z M213.463,434.094c2.655,0,5.31,0,7.965,0   C221.565,429.777,214.069,431.974,213.463,434.094z" fill-rule="evenodd"/>
	<path fill="#4C721D" clip-rule="evenodd" d="M185.585,67.703c-1.234,0.89-1.659,2.589-3.982,2.39   c0.262-1.862,0.958-3.291,1.593-4.779c1.234,0.89,1.659,2.589,3.982,2.39c1.586-3.305,2.713-8.717,5.575-12.744   c-2.502,0.684-1.77,4.603-4.779,4.779c0.403-5.318,5.067-10.133,8.762-9.558c0.558,2.948-2.792,1.986-3.983,3.186   c3.56,6.296-4.04,14.291-6.372,19.913C183.993,71.916,185.497,70.379,185.585,67.703z" fill-rule="evenodd"/>
	<path fill="#4C721D" clip-rule="evenodd" d="M128.237,67.703c1.597,4.521,8.292,15.061,7.965,21.505   c-5.232-8.84-8.534-19.609-15.134-27.081c10.655,2.888,19.2,14.783,23.099,27.081c-1.904-0.485-5.779,1-6.372-0.796   C134.945,81.172,132.925,73.103,128.237,67.703z" fill-rule="evenodd"/>
	<path fill="#F4DC00" clip-rule="evenodd" d="M207.887,430.111c-3.28,0.377,0.767-2.144-2.39-2.39   c-1.677,2.905-3.985,2.974-1.593,6.372c-4.91-0.931-9.607-2.074-8.762-8.762c-3.17,0.582-3.202,0.582-6.372,0   c0.46,1.93,3.008,1.771,4.779,2.39c0.066,1.262-0.383,3.038,0.796,3.187c-3.199,2.627-4.434-3.501-9.558-1.594   c-0.948,3.338,3.357,1.422,3.982,3.187c-0.46,2.906-7.379,0.134-8.761,0.797c-0.818-2.677,2.477-1.24,3.982-1.594   c-0.903-4.298-4.748-0.953-8.762-2.39c-2.082-2.633-6.184-6.814-10.354-4.778c0.534,2.387,4.635,1.206,5.576,3.186   c-5.039,1.573-12.865-0.93-19.116-0.796c0.603,2.47,5.498,3.478,3.186,6.372c-4.236,1.05-2.953-3.42-5.576-3.983   c-1.177-5.956,6.769-2.789,9.558-4.778c-0.343-1.781-3.925-0.323-5.575-0.797c2.351-2.351,1.444-3.225,3.186-5.575   c-9.07-5.798-15.894-13.843-22.302-22.303c2.036,8.854,10.729,17.942,19.913,22.303c-1.152,3.451-1.779-0.839-4.779,0   c-0.393,2.517,3.953,0.295,3.186,3.186c-3.139,0.865-7.043,5.141-7.168,6.372c-1.899,2.843-6.852-1.181-7.965,3.187   c-2.047-0.077-1.139-3.109-3.186-3.187c-1.523,0.336-3.428,0.289-3.186,2.39c-2.828-1.872-4.299-0.826-6.372-3.982   c-0.847,0.94-0.361,5.042,1.593,5.575c-2.766,2.104-6.644-0.479-12.744,0.797c0.081-2.043,2.968-1.28,3.982-2.39   c-4.516-3.715-8.861-7.601-11.948-12.744c-3.067,5.213,4.271,6.864,5.576,10.354c-2.6-0.199-2.662,1.335-5.576,2.39   c0.937-6.247-8.392-2.228-10.354-5.575c-0.465,5.396,2.09,2.82,5.576,3.982c-0.658,2.251,1.123,2.063,0.796,3.982   c-3.766-1.013-6.114-3.443-10.354-3.982c0.256-6.381,7.873-5.402,8.762-11.151c-3.69,1.62-7.15,3.47-8.762,7.169   c-9.045,2.195-12.15-6.439-20.709-7.169c-0.518-6.916-6.957-7.911-5.576-16.727c-13.635-8.933-18.082-27.053-26.285-41.418   c9.121-11.403,2.604-29.72-10.354-34.25c-6.362-11.078-0.121-25.942,0.797-39.028c-3.604-2.769-1.541-11.204-3.983-15.134   c8.187-13.654,10.308-29.432,11.948-48.586c5.503-2.196,4.958-10.441,11.151-11.948c0.399-7.512,1.64-10.949,2.39-21.505   c10.66-8.456,19.08-19.152,22.302-35.046c3.713-1.597,4.198-6.422,9.558-6.372c-1.334-6.644,5.585-5.035,4.779-11.151   c9.724-6.206,15.438-16.421,21.505-26.285c10.425-4.442,16.442-13.294,25.488-19.116c25.25,1.731,46.125-3.982,62.924,6.372   c-0.13,2.52,2.117,2.662,1.593,5.575c3.835,2.967,18.317,5.233,17.523,12.744c3.463-0.811,5.52,0.376,9.559,2.39   c-1.348,5.713,5.934,10.409,4.778,15.93c2.411-0.244,2.846-2.464,6.372-1.593c1.442,1.676,1.316,6.614-1.593,6.372   c-0.134,1.727,2.825,0.361,3.982,0.796c2.179-0.725-1.413-2.791,0.797-3.982c4.613,3.883,6.548,10.444,11.947,13.541   c-4.731,3.875,8.817,6.739,9.558,12.744c-3.817,2.158-6.054-3.263-7.168-6.372c-3.236,1.956-3.968-0.652-4.779-3.186   c-2.674,0.728-0.395,1.481-0.796,3.982c0.117,1.741,2.007,1.71,3.982,1.593c0,2.124,0,4.248,0,6.372   c-1.919-0.326-1.731,1.455-3.982,0.796c1.179,3.523-1.08,5.749,1.593,7.168c2.728-1.361,0.175-5.052,3.186-7.168   c2.502-1.326,3.255,2.962,3.982,0.796c0.845,0.934-6.178,9.558,0,11.948c-1.047,2.138-2.138,4.233-3.186,6.372   c-2.446-2.197-4.188-1.127-5.575,1.593c-4.342-3.093-4.032-10.836-11.151-11.151c2.826,5.138,7.03,8.899,10.354,13.541   c-2.12,3.109-0.411,5.243-2.39,7.965c-2.142,0.549-1.539-1.646-2.39-2.39c-3.818,4.462-6.019,7.895-7.168,13.541   c4.055-0.989,2.388-7.701,7.168-7.965c0.291,4.759-6.256,6.185-4.778,9.558c4.636-4.922,8.901-10.214,11.947-16.727   c9.307,7.5,24.913,23.053,11.15,35.046c0.247,1.081,1.995,0.661,3.187,0.797c-5.3,6.116-8.349,14.484-13.541,20.709   c8.163-2.196,12.339-15.271,15.931-24.691c2.254-0.757,3.393,1.556,6.372-0.797c5.446,6.767,7.701,16.725,15.93,20.709   c-1.268,1.919-3.732,2.64-4.779,4.779c0.151,0.645,0.8,0.794,0.797,1.593c3.383,0.993,2.13-2.649,3.982-3.186   c4.414,2.618-0.652,8.666-3.186,9.558c0.339,1.52,2.275,1.441,1.593,3.982c-4.963,6.454-7.284,15.549-12.744,21.506   c-3.467-2.109-6.108-5.043-7.965-8.762c-1.429-0.102-1.681,0.976-3.187,0.797c-1.584-3.726-3.712-6.908-6.372-9.559   c1.406,6.035,8.464,13.304,13.541,18.32c0.813,15.131-14.854,24.248-17.523,35.842c10.058-6.138,11.31-21.082,21.506-27.081   c3.246,7.109,8.101,12.608,11.151,19.913c-1.333,1.406-2.669-0.708-5.576,0c0,0.796,0,1.593,0,2.39   c2.129,1.791,5.229-0.941,7.169,0c0.413,4.13-4.086,3.349-3.982,7.168c3.827,0.376,3.575-3.327,5.575-4.778   c2.641,2.669,6.001,4.618,4.779,11.15c-10.681-0.909-18.213,7.847-19.116,16.727c-1.16,11.411,10.687,17.009,8.762,26.285   c-1.917-2.168-4.199,0.649-4.779-3.187c2.081,0.223,3.986,0.27,3.187-2.39c-0.604-0.808-5.377,0.95-6.372,2.39   c-0.628,3.282,3.813,1.497,3.186,4.779c-3.439-0.423-4.465-0.23-6.372-0.797c-1.6,0.889-0.913,6.161,0,7.169   c3.52-0.232-0.429-4.212,1.593-4.779c4.741-0.879,0.642,4.055,2.39,4.779c2.163,0.569-0.569-3.756,1.593-3.187   c3.319,0.066-0.711,4.314,1.594,6.372c-1.898-2.186-3.512-0.037-5.576-2.39c-1.382,2.069-3.092,3.812-4.778,5.576   c-0.984,2.577,2.577,0.608,1.593,3.186c-4.242-0.273-2.318,3.246-3.187,4.779c-2.472,0.082-2.272-2.506-5.575-1.593   c-0.847,2.971,2.987,1.261,2.39,3.982c-2.809,1.053-3.563,1.124-6.372,1.593c-0.695-2.554,1.226-2.491,2.39-3.186   c-0.798-1.062-1.313-2.404-2.39-3.187c-2.504,1.11,1.096,3.931-0.797,4.779c-3.437-0.015-2.935-3.968-6.372-3.982   c2.477,3.364,5.74,5.942,8.762,8.762c-2.02,4.352-6.688,6.056-8.762,10.354c2.565,2.769,3.854-2.474,4.779-3.983   c1.393,2.06,6.838,0.066,5.575,4.779c-5.904-3.781-6.752,1.836-7.965,5.576c-1.408-0.716-2.325-1.923-3.982-2.39   c1.334-1.321,0.634-4.677,0.797-7.169c-3.8,0.105-1.06,1.806-1.593,4.779c-2.355,0.08-6.355,2.61-3.983,4.779   c-0.675,2.842-1.961,0.096-4.778,0.796c1.413,5.729,7.23-2.023,11.15,1.593c-1.229,3.331-4.217,3.488-6.372,0.797   c-2.231,0.782,1.157,2.125-0.796,3.186c-2.757-1.491-5.642-2.854-10.354-2.389c-0.293,2.416,2.595,1.653,3.982,2.389   c-1.76,3.816-8.897,2.254-10.354,6.372c1.926,1.526,6.55,0.354,5.575,4.779c-1.593,0-3.186,0-4.779,0   c-0.224-1.286,0.753-1.371,0.797-2.39c-3.486,1.117-4.626-0.055-6.372-2.39c-2.927,0.524-5.355,1.548-8.761,1.594   c1.152-3.627,6.567-2.991,7.965-6.372c2.676-0.818,1.239,2.477,1.593,3.982c1.41-3.104,6.523-2.504,7.168-6.372   c0.359-2.218-4.341,0.624-3.982-1.593c0.054-3.561,1.821-1.016,3.187-2.39c-0.761-9.252,10.676-14.454,15.133-23.099   c-6.059,3.114-15.965,13.07-17.522,20.709c-12.261,3.765-16.465-9.143-24.692-15.93c0.963,6.889,10.611,14.926,18.32,19.912   c-2.485,2.403-6.625,4.204-8.762,0.797c-2.368,2.294,1.994,1.382,1.593,3.982c-2.845,0.341-4.372,2-5.576,3.982   c0.672,1.132,4.106-1.682,4.779-3.187C214.308,427.026,210.205,429.735,207.887,430.111z M242.933,145.76   c-0.093,5.769-8.818,8.309-8.762,16.727c0.191,1.494,1.312-0.452,1.594,0.796c-2.076,1.11-1.858,4.514-5.576,3.983   c-5.765-3.533-10.415-12.411-15.93-13.541c4.624,5.996,9.667,11.573,15.93,15.93c-3.294,5.467-5.388,12.135-11.947,14.337   c0.172-8.373-6.079-17.775-14.337-17.523c-16.966,0.517-17.296,32.8-31.86,36.639c18.562,2.372,15.898-36.192,35.046-32.656   c2.474,0.457,4.866,3.456,6.372,6.372c5.854,11.335,5.174,35.133,17.523,41.418c-3.843-9.515-12.293-22.642-9.558-33.453   c2.162-0.57-0.57,3.756,1.593,3.186c2.516-11.291,12.96-14.652,15.93-25.488c1.256,0.072,0.624,2.032,2.39,1.593   c-1.435-4.403,1.469-7.675,1.593-12.744c1.507-1.414,5.571-0.271,4.779-3.982C246.224,146.717,244.795,146.022,242.933,145.76z    M155.318,97.97c-0.811-1.844-1.602-3.708-3.982-3.982C151.687,96.291,153.015,97.618,155.318,97.97z M164.876,97.97   c2.978,0.057,4.561-1.28,5.576-3.186C167.847,95.1,165.302,95.475,164.876,97.97z M130.626,117.882   c-0.828-3.416-0.455-3.076,0.796-5.576c-4.937-1.435-3.063-9.68-8.761-10.354C124.802,107.776,125.733,114.811,130.626,117.882z    M169.655,119.475c-0.725-3.9-6.483-13.609-11.151-13.541C162.464,110.206,164.77,116.129,169.655,119.475z M181.603,105.138   c-1.062,0-2.124,0-3.186,0C177.152,108.842,182.532,107.903,181.603,105.138z M141.777,117.086c1.428-4.679,5.664-6.55,8.762-9.558   C145.802,108.173,138.751,113.856,141.777,117.086z M188.771,115.493c3.921-1.92,7.127-4.555,10.354-7.168   C193.947,108.986,191.409,112.29,188.771,115.493z M117.882,120.272c0.796,0,1.593,0,2.39,0c0.223-1.816-0.192-2.994-1.593-3.186   C118.428,118.163,117.545,118.607,117.882,120.272z M113.104,123.458c2.24-0.149,3.393-1.386,3.186-3.983   C114.049,119.625,112.896,120.861,113.104,123.458z M149.743,126.644c3.671-0.045,4.637-2.796,4.779-6.372   c-1.018-0.044-1.103-1.021-2.39-0.797C151.693,122.223,149.287,123.002,149.743,126.644z M219.835,123.458   c2.986,0.596,3.881-0.898,3.982-3.186c-1.096,0.034-1.749-0.375-2.389-0.797C221.086,120.992,219.712,121.477,219.835,123.458z    M105.935,136.999c1.976,0.117,3.865,0.148,3.982-1.593c-4.378-2.525-3.683-10.124-7.965-12.744   C100.787,126.946,104.802,132.41,105.935,136.999z M147.353,140.981c-3.115-6.443-6.516-12.6-11.151-17.523   C138.223,130.995,141.251,137.525,147.353,140.981z M203.108,130.626c3.283,0.21,3.975-5.002,2.389-7.168c-0.796,0-1.593,0-2.389,0   C205.332,126.425,201.581,128.674,203.108,130.626z M160.894,141.777c7.269-3.088,12.854-10.702,14.337-15.134   C169.479,130.716,164.66,135.72,160.894,141.777z M199.922,144.167c-9.033-2.918-14.005-14.134-20.709-16.727   C184.555,133.62,191.655,146.186,199.922,144.167z M117.882,140.981c4.819,1.732,10.271-10.062,9.558-11.151   C123.834,133.126,120.935,137.13,117.882,140.981z M225.411,134.609c2.145-0.054,3.828-1.821,2.389-3.186   C225.702,131.183,225.186,132.526,225.411,134.609z M230.189,136.999c2.597,0.675,6.533-1.348,3.982-3.186   C233.151,135.181,230.379,134.799,230.189,136.999z M207.887,150.539c6.257,0.416,4.499-7.184,8.762-8.762   C211.322,139.32,210.475,147.659,207.887,150.539z M238.155,145.76c2.509,0.385,1.803-2.444,4.778-1.593   c0.336-1.755-2.386-4.394-3.186-2.39C242.239,143.065,236.582,142.767,238.155,145.76z M98.766,147.353   c0.011-1.583,2.173-1.013,1.593-3.186c-2.064-0.41-2.961-0.346-5.576-1.593C94.694,145.584,96.342,146.856,98.766,147.353z    M234.171,146.556c0.797,0,1.594,0,2.39,0c-0.182-1.411,0.803-3.989-1.593-3.186C234.717,144.447,233.834,144.892,234.171,146.556z    M141.777,162.486c6.032-3.26,6.951-11.634,12.744-15.133c2.215,5.219,4.453,10.415,9.558,12.744   c-1.371-4.569-7.4-11.112-11.151-15.93C149.335,150.397,143.808,154.693,141.777,162.486z M227.799,151.335   c4.32,0.689,3.27-4.872,2.39-7.168c-0.796,0-1.593,0-2.39,0C228.18,147.021,229.095,148.769,227.799,151.335z M172.841,150.539   c0.826,2.095,0.643,5.198,3.982,4.779c-3.734-3.755,4.479-7.101,0-8.762C176.881,149.269,174.48,149.523,172.841,150.539z    M130.626,162.486c-2.377-5.853-7.314-9.147-10.354-14.337C119.17,154.413,125.846,159.481,130.626,162.486z M92.395,160.894   c-2.537-3.57-4.653-7.56-7.169-11.151C84.25,153.837,87.67,159.896,92.395,160.894z M100.359,169.655   c2.246,3.595,2.876,8.806,8.761,8.762c-0.708-4.07-5.365-4.193-5.575-8.762c2.549-5.947,7.355-9.636,9.558-15.93   C106.088,156.268,105.136,164.874,100.359,169.655z M191.957,170.452c2.562-6.465,6.816-11.238,11.151-15.93   C196.119,155.678,189.991,165.582,191.957,170.452z M81.243,174.434c0.94-3.042,1.16-6.805,3.186-8.762c-1.593,0-3.186,0-4.779,0   C80.53,169.92,78.306,173.282,81.243,174.434z M113.9,170.452c1.062,0,2.124,0,3.186,0c-0.864-2.04,2.42-3.797,0-4.779   C116.59,167.832,113.758,167.655,113.9,170.452z M140.981,176.823c-3.686-3.473-6.715-7.299-13.541-5.575   c-16.135,4.075-21.932,38.709-32.657,48.586c19.692-8.982,13.128-44.22,40.622-45.4c6.984,8.149,3.419,26.848,18.32,27.081   C146.146,196.616,141.68,188.603,140.981,176.823z M152.132,186.381c0.134-0.928,1.259-0.865,2.39-0.796   c-3.417-3.486-6.694-7.112-11.151-9.558C145.175,180.594,147.693,184.449,152.132,186.381z M83.633,195.939   c5.181-1.457,5.217-8.058,7.965-11.947c1.722-1.226,6.419-5.147,3.186-6.372C89.664,182.324,86.847,189.331,83.633,195.939z    M69.296,182.399c5.014,4.279,5.694,12.891,11.947,15.93c-0.646-4.515-6.798-10.108-7.965-16.727   C70.776,182.004,70.023,179.725,69.296,182.399z M93.987,199.125c1.858-0.266,3.432-0.816,3.982-2.39   c-1.764-0.625,0.152-4.931-3.186-3.982C94.058,194.515,93.014,198.058,93.987,199.125z M58.941,205.498   c0.998-2.719,2.778-4.656,3.982-7.168c-1.271-0.588,0.182-3.899-2.39-3.186C60.438,198.231,54.968,203.552,58.941,205.498z    M58.145,222.224c-1.213-4.904-7.284-9.162-9.558-10.354c2.568,4.335,3.851,9.956,7.169,13.541   c9.923-1.675,17.497-12.674,17.523-19.116C67.471,210.842,64.206,217.931,58.145,222.224z M93.191,217.445   c0.134-0.928,1.259-0.865,2.39-0.797c-2.503-3.338-3.51-8.172-7.169-10.354c-0.125,0.938,0.137,2.261-0.796,2.39   c0.238-1.294-1.075-2.148-1.593-0.796C89.312,210.173,90.08,214.98,93.191,217.445z M223.817,242.137   c-3.98-13.874-21.322-31.137-35.046-33.453c-13.461-2.272-19.089,6.632-18.319,19.913c1.155,19.92,32.852,47.465,51.772,32.657   c1.581,1.074-0.251,5.561,2.39,5.575C222.873,259.71,226.666,252.063,223.817,242.137z M126.644,266.828   c11.038-4.749,25.438-18.704,27.081-31.063c1.775-13.354-2.725-23.357-16.727-23.895c-20.171-0.775-41.951,19.6-40.622,41.418   c0.121,1.985,0.81,3.889,0.796,5.575c-0.028,3.57-2.718,7.572,0.796,9.558c2.255,0.131-0.662-4.909,1.593-4.778   C104.626,271.786,117.626,270.708,126.644,266.828z M248.509,221.428c3.456,1.407,5.995-5.052,2.389-5.576   C249.962,217.571,249.246,219.51,248.509,221.428z M72.482,232.579c1.327,0,2.655,0,3.982,0c-0.592-3.248,2.567-2.743,1.593-6.373   C73.93,226.062,74.032,230.146,72.482,232.579z M79.65,251.694c8.148-3.533,8.008-15.355,14.337-20.709   c0.803-0.009,1.002-1.396,0-1.593C87.359,234.978,84.606,244.438,79.65,251.694z M42.215,240.544c2.38-3.727,6.614-5.6,8.761-9.559   C47.474,233.071,41.315,236.706,42.215,240.544z M75.668,259.66c-4.254-9.021-9.099-17.452-15.134-24.692   C63.913,244.864,68.841,253.212,75.668,259.66z M244.526,252.491c-2.194-2.859-5.627-11.357-10.354-14.337   C237.196,243.361,238.382,250.405,244.526,252.491z M272.404,254.084c0.522-2.133,2.281-3.028,3.187-4.778   c-1.216-1.439-2.871-2.44-2.39-5.576c-0.797,0-1.593,0-2.39,0C272.692,247.603,269.128,252.072,272.404,254.084z M50.976,255.677   c3.455,1.325,1.57,7.988,5.576,8.762c-1.451-6.734,0.493-8.902-1.593-12.744C54.175,253.566,50.971,253.017,50.976,255.677z    M51.772,294.706C48.52,281.74,39.3,267.901,35.046,253.288C38.395,270.219,43.581,281.781,51.772,294.706z M238.155,262.049   c5.001,0.338,9.76-6.651,7.168-8.761C243.973,257.248,240.287,258.872,238.155,262.049z M131.423,285.944   c3.283,17.197,49.43,17.901,57.348,4.779c4.494-7.447,1.863-21.401-3.186-27.081c-4.683-5.269-17.219-7.926-26.285-7.169   C140.963,258.004,127.951,267.757,131.423,285.944z M236.561,317.805c-5.46-13.47-11.587-31.278-3.982-46.994   c-0.176-0.62-0.667-0.926-1.593-0.796C223.064,285.012,221.049,309.625,236.561,317.805z M59.738,289.927   c3.511-5.516,6.513-11.541,10.354-16.727C63.703,275.312,59.444,283.784,59.738,289.927z M90.005,279.572   c2.418,8.412,6.716,18.503,4.779,27.878c-1.226,5.934-5.74,8.325-6.372,12.744c8.997-2.42,10.312-12.521,11.948-22.303   c20.961-0.352,21.406,15.499,27.877,31.86c3.739,9.453,6.369,18.84,7.965,26.284c1.066,4.975,13.628,16.406,18.319,17.523   c10.336,2.461,18.944-3.984,22.302-8.762c11.237-15.987,12.465-48.953,26.285-60.534c6.013-3.811,14.067-5.579,19.116-10.354   c-26.929,5.123-31.66,26.671-58.145,29.471c-12.281,1.299-25.107-2.058-31.86-7.168c-9.053-6.853-10.792-17.809-21.505-20.71   c-4.261-1.153-7.292,0.539-11.948,0C97.827,288.655,95.287,279.451,90.005,279.572z M250.102,293.909   c0.009-1.053,1.396-0.728,1.593-1.593c-0.521-1.557,0.993-6.461-2.39-8.762C249.901,286.144,246.828,291.841,250.102,293.909z    M39.825,317.008c2.015-0.64,2.031-3.278,3.186-4.779c-8.103,0.789-6.609-13.803-12.744-17.522   C33.409,302.184,33.763,312.45,39.825,317.008z M78.057,297.892c0.925,0.669,2.136,1.051,3.982,0.797   C82.347,296.221,78.204,295.445,78.057,297.892z M41.418,326.566c4-6.621,6.294-14.947,11.948-19.913   C45.757,306.019,41.069,319.258,41.418,326.566z M243.73,316.212c-1.893-3.418-4.077-6.544-7.169-8.762   C237.933,311.388,239.75,314.882,243.73,316.212z M70.092,327.362c-0.197-5.483-5.237-12.739-9.558-16.727   C62.79,317.142,65.889,322.804,70.092,327.362z M272.404,315.415c-0.178,3.411,2.65,3.247,0.797,6.372   c4.754,0.771,2.312-5.652,5.575-6.372C275.96,313.615,275.975,317.104,272.404,315.415z M288.334,322.583c0.796,0,1.593,0,2.389,0   c0.225-2.083-0.291-3.426-2.389-3.186C288.334,320.46,288.334,321.521,288.334,322.583z M278.776,327.362   c3.52,1.257,5.648-6.005,2.39-6.372C281.194,323.882,277.138,325.326,278.776,327.362z M222.224,330.549   c4.226-0.266,3.127-5.54,2.39-8.762c-0.797,0-1.593,0-2.39,0C222.598,325.494,223.301,327.103,222.224,330.549z M50.976,350.461   c-0.096-7.149-6.13-15.053-9.558-21.506C42.411,338.408,47.166,346.222,50.976,350.461z M260.457,344.886   c1.516,3.357,6.864,7.446,7.168,9.558c0.125,0.867-1.754,1.256-2.389,3.187c-1.905,5.785,0.713,15.847-5.576,13.54   c1.304-2.443,3.984-6.759,3.187-8.762c-4.093,0.421-3.274,5.754-4.779,8.762c-1.802-0.962-3.503-2.304-4.779,0   c0.553,1.571,4.444-0.196,4.779,1.593c-1.303,2.68-7.14,0.825-7.169,4.779c1.631,2.071,4.961-3.596,7.169-0.796   c-1,2.187-5.015,1.356-4.779,4.778c7.911-0.319,7.686-8.775,12.744-11.947c-0.043,1.37,0.613,2.042,1.593,2.39   c2.145-2.071-0.974-2.402-0.796-4.779c1.387,0.06,2.477-0.178,3.186-0.796c-4.136-6.481,8.043-11.535,0.797-15.931   c-0.125,0.938,0.137,2.261-0.797,2.39c-1.983-2.188-6.693-3.432-4.778-7.169c-6.783-3.041-7.821-11.826-13.541-15.93   C251.558,334.802,258.059,339.573,260.457,344.886z M96.377,336.921c3.712-0.005,3.702-3.732,4.779-6.372c-1.062,0-2.124,0-3.186,0   C99.334,334.581,94.256,334.566,96.377,336.921z M268.421,332.938c1.583,1.326,1.013-0.072,3.187,0   C272.235,329.871,267.793,329.871,268.421,332.938z M98.766,356.833c7.165-2.128,7.585-11,12.744-15.134   c-1.826-5.496,7.429-7.67,3.982-9.558C107.79,338.244,103.809,348.069,98.766,356.833z M224.614,352.851   c-1.125-1.204-3.869-2.516-5.576-0.797c-3.517-6.306-8.097-11.55-11.947-17.522c-4.432,7.088,8.938,9.655,9.558,16.727   c0.145,1.647-3.009,4.587,0.796,5.575c-3.609,0.905-3.346,5.682-7.168,6.372c2.059,6.34-7.824,12.29-11.948,17.523   c7.124,0.154,13.034-10.98,15.134-15.931c4.807,0.028,5.803-3.755,11.151-3.186c0,1.062,0,2.124,0,3.186   c8.562,4.713,10.008,16.543,19.116,20.709c-4.927-10.737-15.594-15.735-16.727-30.267c4.997-6.192,17.981-16.042,15.93-23.099   C238.022,341.361,231.208,347.049,224.614,352.851z M51.772,369.577c5.296-8.51,8.598-19.014,15.134-26.284   c-3.282-4.506,5.04-8.65,1.593-10.354C62.725,344.952,54.508,354.524,51.772,369.577z M96.377,356.036   c-6.48-5.201-10.513-12.851-15.93-19.115C82.83,345.734,89.029,354.826,96.377,356.036z M248.509,356.833   c6.328-0.844,4.279-6.894,0-8.762C246.339,351.85,250.178,352.555,248.509,356.833z M197.533,352.054   c-0.376,2.501,2.144,2.104,2.39,3.982c-1.197,1.193-3.354,1.426-3.983,3.187c5.068,4.151,8.032-8.039,3.983-10.354   C198.28,349.085,199.732,352.396,197.533,352.054z M74.075,361.612c3.562,0.109,3.061-3.843,3.982-6.372   c-1.018-0.044-1.103-1.021-2.389-0.797C75.526,357.166,72.346,359.484,74.075,361.612z M125.847,362.408   c4.503,0.299,3.877-7.234-0.796-6.372C124.702,358.774,125.366,360.501,125.847,362.408z M273.997,364.002c0-1.062,0-2.124,0-3.187   c-0.796,0-1.593,0-2.389,0C271.385,362.896,271.338,364.802,273.997,364.002z M72.482,383.118   c-3.676-6.944-7.461-13.78-11.948-19.913C62.871,371.488,67.452,377.528,72.482,383.118z M119.476,383.914   c-3.483-5.864-12.206-13.242-16.727-20.709C105.805,372.628,111.339,379.571,119.476,383.914z M85.226,371.967   c-0.385-2.509,2.445-1.804,1.593-4.779c-4.379,6.291-12.077,13.344-14.337,19.116c3.924,0.295,3.386-4.754,7.168-2.39   c2.658-7.431,8.769-11.409,12.744-17.522C88.535,366.78,88.541,371.033,85.226,371.967z M251.695,369.577c0.797,0,1.593,0,2.39,0   c0.223-1.815-0.192-2.994-1.593-3.186C252.241,367.468,251.358,367.912,251.695,369.577z M127.44,391.083   c9.488-4.053,12.525-14.557,19.913-20.709C138.014,374.575,133.756,383.857,127.44,391.083z M190.364,387.896   c-0.408-6.32-4.836-12.416-10.354-15.93C183.844,377.946,186.561,385.684,190.364,387.896z M60.534,383.118   c4.184,0.229,2.283-8.195-0.796-7.966C59.18,378.632,61.092,379.639,60.534,383.118z M267.625,379.932   c2.554,0.695,2.491-1.226,3.187-2.39c-1.019-0.044-1.104-1.021-2.39-0.796C268.6,378.252,267.524,378.503,267.625,379.932z    M216.649,394.269c1.026,1.098,3.46,0.788,5.575,0.797c-1.778-6.264,3.627-12.688-0.796-14.337   C219.592,384.999,221.313,392.826,216.649,394.269z M258.067,381.524c0.103,2.812,6.84,3.732,5.575-0.796   C260.149,381.141,261.026,380.977,258.067,381.524z M265.236,383.914c1.639,1.652,4.039-0.003,3.982-2.39   C266.716,381.146,265.963,382.519,265.236,383.914z M266.032,387.896c0.364-2.488-1.701-2.546-3.982-2.39   C261.685,387.996,263.751,388.054,266.032,387.896z M160.097,387.101c0.406,2.248,1.927,3.383,2.39,5.575   c-2.392,1.06-3.782,3.121-3.187,7.169C166.419,399.685,165.512,385.834,160.097,387.101z M104.342,396.658   c1.564-1.104,0.972-6.76,0-7.965c-0.796,0-1.593,0-2.39,0C103.295,390.802,101.302,396.246,104.342,396.658z M66.11,397.455   c2.844-0.873,4.702-2.731,5.575-5.576C68.841,392.752,66.983,394.61,66.11,397.455z M96.377,414.182   c1.963,0.104,3.837,0.12,4.779-0.797c-7.296-5.448-11.138-14.35-17.523-20.709C81.581,401.284,94.131,405.034,96.377,414.182z    M164.876,417.367c11.25-5.211,17.194-15.729,26.285-23.099C180.426,400.461,173.273,407.69,164.876,417.367z M105.138,413.385   c7.097-1.197,11.46-11.856,17.523-16.727C113.994,399.407,110.346,407.176,105.138,413.385z M246.12,397.455   c-0.803,2.396,1.774,1.411,3.186,1.593c0-0.797,0-1.593,0-2.39C247.918,396.599,246.828,396.836,246.12,397.455z M244.526,409.402   c0.497-2.689,1.838-4.535,2.39-7.169C244.487,402.795,239.521,408.741,244.526,409.402z M71.685,413.385   c2.151,4.202,9.401,2.186,10.354-1.593c-1.252-0.606-1.19-2.527-3.186-2.39C78.131,415.232,74.021,408.73,71.685,413.385z    M199.125,415.774c1.505,0.088,0.553,2.633,2.39,2.39c0.668-0.925,1.051-2.136,0.796-3.982   C200.496,413.959,199.317,414.373,199.125,415.774z M187.178,417.367c0.483,1.376,3.778-0.061,3.982,1.593   c-1.496,1.425-4.6,1.242-4.779,3.982c4.04,0.323,5.823-1.61,7.965-3.186c0.659,4.12,3.257,6.301,6.372,7.965   c0.072-2.173-1.327-1.604,0-3.186c-3.564,0.378-3.986-2.387-3.982-5.576C192.281,420.081,190.145,412.709,187.178,417.367z    M123.458,425.332c4.58,0.112,5.73-6.711,5.576-8.761c-2.257,0.83-3.319,0.83-5.576,0   C125.775,419.74,124.511,421.758,123.458,425.332z M207.887,423.739c0.931-2.083-2.458-3.426,0.796-3.186   c-0.352-2.304-1.679-3.631-3.982-3.982C207.5,418.86,203.436,423.102,207.887,423.739z M170.452,422.942   c2.468,1.69,5.232-1.832,7.965-2.389c1,1.955,4.536,5.507,7.168,3.186c-3.646-0.336-4.362-3.603-7.168-4.779   C176.25,420.776,171.485,419.994,170.452,422.942z M136.999,420.554c0.5,2.685,2.706,3.666,5.575,3.982   c0.239-1.566-1.075-1.58-1.593-2.39c1.87-0.254,2.99-1.259,5.576-0.797C145.458,417.359,140.674,421.967,136.999,420.554z    M130.626,424.536c-0.554,2.983,6.027,1.94,4.779-0.797C133.442,423.635,131.568,423.619,130.626,424.536z" fill-rule="evenodd"/>
	<path fill="#F4DC00" clip-rule="evenodd" d="M277.979,191.957c-1.177,3.185-3.08,1.5-5.575,2.39   c0.032,2.421,0.464,5.242-2.39,4.779c0-1.328,0-2.655,0-3.982c-4.356,3.998,1.195,9.257-0.796,12.744   c-7.254-2.835-8.13-12.048-15.134-15.134c3.851-3.583,1.576-13.292,7.168-15.133c0.821-5.005-4.779-7.73-0.796-11.151   c3.021,2.838,1.12,6.142,6.372,7.169c-0.089,1.504-2.634,0.553-2.39,2.389c0.675,2.334,2.564-0.476,3.982,0   c0.378,1.608-0.612,7.194-3.186,6.372c0.254,1.847-0.128,3.058-0.797,3.982c0.797,0,1.593,0,2.39,0   c1.801-0.323-0.421-4.668,3.186-3.186c0.658-2.251-1.122-2.063-0.796-3.982c6.053-0.601,5.082,4.583,3.982,8.762   c-2.293-0.941-2.229-3.668-5.576-1.593c0.088,1.981,1.493,2.466,0,3.983c-2.376,0.177-2.708-2.941-4.778-0.797   c0.72,1.404,1.781,2.466,3.186,3.186c2.676-0.885,6.075-2.954,7.169,0.796C274.951,192.971,275.846,189.812,277.979,191.957z    M260.457,183.992c3.225,0.245,2.375-5.029,0.796-5.576C260.156,179.443,260.464,181.876,260.457,183.992z" fill-rule="evenodd"/>
	<path clip-rule="evenodd" d="M86.022,207.887c0.518-1.352,1.831-0.498,1.593,0.796   c0.934-0.128,0.672-1.452,0.796-2.39c3.659,2.183,4.666,7.017,7.169,10.354c-1.131-0.068-2.256-0.131-2.39,0.797   C90.08,214.98,89.312,210.173,86.022,207.887z" fill-rule="evenodd"/>
	<path fill="#7E543A" clip-rule="evenodd" d="M222.224,245.322c-0.492,1.897-3.471,1.309-2.389,4.779   c0.81-0.518,0.824-1.831,2.389-1.593c-0.175,2.564,1.409,3.37,0.797,6.372c-4.904-7.641-11.698-12.5-12.744-19.913   c-3.94,3.269-6.304-4.869-10.354-6.372c-0.58-2.173,1.583-1.604,1.593-3.186c-5.232,2.453-6.462-4.222-10.354-5.576   c0.728-2.673,1.481-0.395,3.982-0.796c-5.221-0.957-9.273-2.716-15.133-6.372c3.407-3.665,12.244-0.418,15.93,0.796   c0.225,1.287-0.752,1.372-0.796,2.39c1.862-0.246,3.291-1.559,4.779,0c-0.49,0.709-0.963,1.425,0,1.593   c-0.117,1.741-2.007,1.71-3.983,1.593c0.367,2.554,3.616,2.225,3.983,4.779c1.388-0.988-1.58-6.933,2.389-7.169   c0.13,0.926-0.176,1.417-0.796,1.593C210.573,222.22,217.605,234.331,222.224,245.322z M206.294,227.003   c-0.664-2.522-2.323-4.049-3.983-5.575c-1.737,2.934,5.524,5.067,2.39,9.558c2.251,0.128,1.855-2.393,3.982-2.389   c0.917,0.941,0.902,2.815,0.796,4.779c2.834-0.673,4.773,2.307,5.576-0.796C209.348,233.093,211.926,224.339,206.294,227.003z" fill-rule="evenodd"/>
	<path clip-rule="evenodd" d="M99.563,263.643c-2.255-0.131,0.662,4.909-1.593,4.778   c-3.515-1.985-0.824-5.987-0.796-9.558c0.013-1.687-0.676-3.59-0.796-5.575c-1.33-21.818,20.45-42.193,40.622-41.418   c14.002,0.538,18.501,10.541,16.727,23.895c-1.643,12.359-16.043,26.314-27.081,31.063   C117.626,270.708,104.626,271.786,99.563,263.643z M141.777,217.445c0-0.797,0-1.593,0-2.39c-2.564,0.175-3.37-1.409-6.372-0.796   c-0.125,0.937,0.137,2.261-0.796,2.389c-8.786-3.777-18.524,4.671-23.895,9.558c0.972,0.09,1.886,0.238,1.593,1.593   c-4.504-1.492-7.556,4.062-3.983,7.965c-4.51-2.142-7.634,1.905-7.965,6.372c2.251-0.658,2.063,1.122,3.982,0.797   c-0.136-3.323,2.395-3.978,3.982-5.576c0.045,0.486,0.119,0.943,0.796,0.797c-2.559,0.893-1.019,5.884-3.186,7.168   c-1.445-1.889-3.405-0.833-6.372-2.389c1.049,2.469-2.361,4.418,0,5.575c0.56-1.361,4.578-3.302,4.779-2.39   c-1.264,3.78-6.922,3.167-5.576,9.558c4.567-3.925,13.919-11.295,11.151-15.133c8.597-0.067,12.3-11.472,19.913-15.134   c-1.561,0.385-2.565-3.651-0.796-3.982c2.749,5.102,8.579-1.595,11.151-3.982c-0.972-0.09-1.886-0.238-1.593-1.593   C140.174,215.862,139.604,218.025,141.777,217.445z M140.981,226.207c-0.678-3.007,2.645-3.739,0.796-5.575   c-5.155,0.685-2.992,8.69-8.761,8.761c-0.476-1.418,2.334-3.308,0-3.982c-3.943,2.248-3.773,11.671-9.558,9.558   c-1.154,2.825-1.404,8.079-5.576,5.576c-0.252,3.199-0.557,6.347-2.39,7.965c-1.504-0.089-0.553-2.634-2.389-2.39   c-0.811,5.296-4.141,8.072-8.762,9.558c0.356,3.543-0.566,5.807-1.593,7.966c3.275,3.921,8.457,4.432,15.133,3.186   c-10.737-19.237,20.188-43.685,27.878-19.116c5.966-5.539,8.445-23.631,0.796-29.47c-0.531,0-1.062,0-1.593,0   C143.347,220.607,144.278,225.521,140.981,226.207z M129.83,258.863c3.449-1.556,7.125-3.595,5.575-7.965   C129.91,249.627,128.729,256.103,129.83,258.863z" fill-rule="evenodd"/>
	<path fill="#FFFFFF" clip-rule="evenodd" d="M206.294,243.729c2.419-0.981-0.864-2.739,0-4.779   c3.16,2.682,3.496,8.187,4.779,12.744c3.256-0.495,0.456-3.327,3.186-3.186c1.304,4.537,3.539,8.143,5.576,11.947   c-3.624,3.148-11.848,2.73-17.523,1.593c10.246-17.091-16.086-43.117-23.098-19.912c-5.897-4.112-7.721-19.438-2.39-25.488   c0.315-1.909-3.628,0.442-2.39-2.389c7.978-2.244,7.423,8.367,12.744,11.151c2.337-0.677-1.036-2.004,0-3.982   c4.77,1.602,3.86,8.884,7.965,11.151c2.021-1.061-1.168-3.536-0.796-5.576C200.348,233.205,200.753,236.277,206.294,243.729z" fill-rule="evenodd"/>
	<path fill="#F4DC00" clip-rule="evenodd" d="M283.555,303.468c0.281-1.116,1.402-0.069,1.593,0.796   c0.033-7.438-9.278-8.611-8.762-16.727c0.211-3.305,4.115-6.119,5.576-9.558c3.432-8.079,6.007-17.938,10.354-23.896   c7.393,6.195,1.226,14.82,1.593,21.506c1.401-0.191,1.815-1.37,1.593-3.187c4.276,5.564,1.823,10.797,1.593,19.116   c-5.484-2.794-4.827,3.094-10.354,2.39c-0.242,2.102,1.663,2.055,3.187,2.39c-1.367,5.058-0.829,7.503-3.187,11.947   C284.395,307.938,285.184,304.493,283.555,303.468z M294.706,265.235c-3.671,0.485,0.473-6.845-3.982-5.575   C289.75,263.579,292.594,269.354,294.706,265.235z M286.741,273.997c0.917,1.737,0.158,5.151,2.39,5.575   c1.794-2.88,4.2-0.474,2.39,2.39c3.205-1.891,1.956,1.269,4.779,1.593c1.325-3.666-3.391-7.26-6.372-7.168   c-0.061-2.522,3.222-6.271,0-7.169C288.894,270.84,289.415,274.016,286.741,273.997z M287.538,282.759   c-0.984,2.577,2.577,0.608,1.593,3.186c-3.493,0.904-2.616-0.005-5.575-0.797c0.503,3.159-3.028,2.282-2.39,5.576   c4.3-0.631,4.852-4.134,7.965,0c1.418-1.066,3.308-8.939,0-9.559C288.962,282.059,288.247,282.405,287.538,282.759z" fill-rule="evenodd"/>
	<path fill="#F4DC00" clip-rule="evenodd" d="M237.358,428.519c-0.105-1.964-0.121-3.838,0.797-4.779   c1.062,0,2.123,0,3.186,0c-0.459,0.483-1.864,3.778,0,3.982C240.613,428.61,239.86,427.973,237.358,428.519z" fill-rule="evenodd"/>
	<path fill="#4C721D" clip-rule="evenodd" d="M156.911,6.372c6.006,8.149,15.556,20.249,8.761,31.86   c-1.062,0-2.124,0-3.186,0c3.7,4.737-2.249,7.982-0.797,15.134c-3.48-1.608-4.777-0.489-7.965-2.39   c0.625-3.28-1.223-4.087-0.796-7.168c2.554,0.366,2.225,3.616,4.779,3.982c2.052-0.838,3.443-5.447,0.796-6.372   c-2.163-0.57,0.57,3.756-1.593,3.186c-2.823-0.324-1.574-3.483-4.779-1.593c-0.506-2.68-0.565-5.807-2.389-7.169   c0.192-1.401,1.37-1.815,3.186-1.593c-2.526-3.336,2.888-6.043-3.983-7.965C149.316,17.362,155.068,13.821,156.911,6.372z    M156.911,35.046c-4.103-0.454-5.71,3.839-3.186,5.576c2.103-2.259,3.211-1.369,4.779-3.186c-2.866-5.63,1.788-18.779-2.389-23.099   C156.055,21.565,155.928,28.86,156.911,35.046z" fill-rule="evenodd"/>
	<path fill="#4C721D" clip-rule="evenodd" d="M179.213,19.913c0.498,9.326,3.402,16.244,3.186,26.285   c-5.474,2.49-7.874,8.056-12.744,11.151c0-2.919-0.31-6.151,3.186-5.576c-4.983-6.7,4.36-17.277,4.779-26.285   c-5.029,8.31-9.45,24.612-8.762,33.453c-1.533,1.918-1.767,5.137-4.779,5.576C160.758,45.773,170.677,31.495,179.213,19.913z" fill-rule="evenodd"/>
	<path fill="#4C721D" clip-rule="evenodd" d="M121.068,32.656c5.072-1.87,7.48,5.784,11.151,7.965   c-1.676,2.185-1.366,3.33-3.186,3.982c-0.528-3.721-1.503-6.993-3.983-8.762c-0.266,2.412,3.815,7.32,3.983,11.948   c1.25-0.342,0.681-2.505,3.186-1.593c1.749,1.675,0.165,3.541-0.796,4.779c-1.589-1.498-1.257-2.893-3.982-1.593   c0.014,3.172,4.076,2.296,3.186,6.372c1.081-0.247,0.661-1.994,0.796-3.186c4.528,0.806,0.483,9.049,3.982,11.151   c-1.812,4.286-10.616-0.991-12.744-4.779C118.716,51.917,126.772,40.712,121.068,32.656z M130.626,62.924   c0.327-1.358,1.027,0.167,2.39,0c-0.689-1.966,0.204-5.514-2.39-5.576C131.724,59.865,128.655,62.155,130.626,62.924z" fill-rule="evenodd"/>
	<path clip-rule="evenodd" d="M247.712,147.353c0.792,3.712-3.272,2.568-4.779,3.982   c-0.124,5.069-3.027,8.341-1.593,12.744c-1.766,0.438-1.134-1.521-2.39-1.593c-2.97,10.836-13.414,14.198-15.93,25.488   c-2.163,0.57,0.569-3.756-1.593-3.186c-2.735,10.811,5.715,23.938,9.558,33.453c-12.349-6.285-11.669-30.083-17.523-41.418   c-1.506-2.916-3.898-5.915-6.372-6.372c-19.148-3.536-16.484,35.028-35.046,32.656c14.564-3.839,14.894-36.122,31.86-36.639   c8.258-0.251,14.509,9.151,14.337,17.523c6.56-2.202,8.653-8.87,11.947-14.337c-6.263-4.356-11.306-9.934-15.93-15.93   c5.515,1.13,10.165,10.007,15.93,13.541c3.718,0.531,3.5-2.873,5.576-3.983c-0.282-1.248-1.402,0.698-1.594-0.796   c-0.057-8.417,8.669-10.958,8.762-16.727C244.795,146.022,246.224,146.717,247.712,147.353z" fill-rule="evenodd"/>
	<path fill="#7E543A" clip-rule="evenodd" d="M138.591,215.852c-0.292,1.355,0.622,1.503,1.593,1.593   c-2.572,2.387-8.402,9.084-11.151,3.982c-1.769,0.331-0.765,4.367,0.796,3.982c-7.613,3.662-11.315,15.066-19.913,15.134   c2.768,3.838-6.584,11.208-11.151,15.133c-1.346-6.391,4.312-5.777,5.576-9.558c-0.201-0.912-4.219,1.028-4.779,2.39   c-2.361-1.157,1.049-3.106,0-5.575c2.967,1.556,4.927,0.5,6.372,2.389c2.167-1.284,0.627-6.275,3.186-7.168   c-0.677,0.146-0.751-0.311-0.796-0.797c-1.587,1.599-4.119,2.253-3.982,5.576c-1.919,0.325-1.731-1.455-3.982-0.797   c0.331-4.467,3.455-8.514,7.965-6.372c-3.573-3.902-0.521-9.457,3.983-7.965c0.292-1.355-0.622-1.503-1.593-1.593   c5.371-4.887,15.109-13.335,23.895-9.558c0.934-0.128,0.672-1.452,0.796-2.389c3.002-0.612,3.808,0.972,6.372,0.796   c0,0.796,0,1.593,0,2.39C139.604,218.025,140.174,215.862,138.591,215.852z M118.679,223.021c2.504,0.682,3.361,3.011,6.372,3.186   c-0.291-2.856-2.139-2.918-0.796-5.575C121.732,222.525,120.206,220.463,118.679,223.021z" fill-rule="evenodd"/>
	<path clip-rule="evenodd" d="M54.958,251.694c2.086,3.842,0.143,6.01,1.593,12.744   c-4.005-0.773-2.121-7.437-5.576-8.762C50.971,253.017,54.175,253.566,54.958,251.694z" fill-rule="evenodd"/>
	<path fill="#7E543A" clip-rule="evenodd" d="M174.434,263.643c0,1.327,0,2.654,0,3.982   c2.472,0.082,2.273-2.506,5.576-1.593c0.101,1.428-0.975,1.68-0.796,3.186c3.029,1.171,0.156-3.561,3.186-2.39   c0.19,4.323,3.699,5.328,5.576,7.965c-2.71,3.714-1.324,7.008-3.982,11.151c-5.621-1.903-0.983,6.45-6.372,4.779   c-0.08-2.47,0.974-3.806,1.593-5.576c0.134-1.727-2.825-0.36-3.983-0.796c2.048,3.686,0.696,4.515-0.796,7.965   c0.677,1.182,2.004,1.713,3.982,1.593c-2.83,3.697-7.134-0.85-10.354-1.593c0.234-1.624,2.155-1.562,2.39-3.187   c-0.129-0.933-1.452-0.671-2.39-0.796c-2.371,3.401-0.826,5.385,0.796,7.965c-2.722,0.333-4.539-0.24-3.982-3.186   c-2.063,0.856-2.961,2.88-5.576,3.186c-0.675-3.33,2.157-3.153,3.187-4.779c-4.157-2.899-12.265,3.955-18.32-0.796   c-2.646,1.686,2.391,2.312,1.593,4.778c-11.457-4.949-15.1-23.708-4.779-31.063C150.458,257.685,162.623,261.297,174.434,263.643z    M163.283,268.421c2.436-0.577,2.343,1.375,4.779,0.797C168.45,266.596,163.47,265.873,163.283,268.421z M168.858,273.2   c2.027-0.097,3.089-1.159,3.186-3.186C170.195,270.288,168.312,270.529,168.858,273.2z M164.08,274.793   c-1.197,1.544-3.354-1.393-3.982,1.594c1.18,0.147,0.73,1.925,0.796,3.186c2.663-1.321,6.432-4.882,3.982-8.762   c-0.796,0-1.593,0-2.389,0C161.893,273.263,164.673,272.342,164.08,274.793z M177.62,274.793c2.374-0.016,4.853,0.074,4.779-2.39   C180.415,272.809,177.594,272.378,177.62,274.793z M166.469,285.944c5.729,0.291,10.247-8.695,7.168-11.947   C173.657,278.087,169.44,282.45,166.469,285.944z M180.01,279.572c0.274,2.115,2.09,2.688,3.982,3.187   C183.853,280.409,182.16,277.517,180.01,279.572z M163.283,285.944c2.497,0.373,2.245-2.003,3.186-3.186   C164.597,280.602,161.126,284.072,163.283,285.944z M156.911,286.741c1.408,1.479,2.325-0.347,3.982-0.797   c0.043-1.37-0.613-2.042-1.593-2.39C158.977,285.09,156.213,284.184,156.911,286.741z" fill-rule="evenodd"/>
	<path clip-rule="evenodd" d="M98.766,295.502c4.655,0.539,7.687-1.153,11.948,0   c10.713,2.901,12.452,13.857,21.505,20.71c6.753,5.11,19.579,8.467,31.86,7.168c26.484-2.8,31.216-24.348,58.145-29.471   c-5.048,4.775-13.103,6.544-19.116,10.354c-13.82,11.581-15.047,44.547-26.285,60.534c-3.358,4.777-11.966,11.223-22.302,8.762   c-4.691-1.117-17.253-12.549-18.319-17.523c-1.597-7.444-4.226-16.831-7.965-26.284c-6.471-16.361-6.916-32.212-27.877-31.86   c-1.636,9.781-2.951,19.883-11.948,22.303c0.632-4.419,5.146-6.811,6.372-12.744c1.938-9.375-2.36-19.466-4.779-27.878   C95.287,279.451,97.827,288.655,98.766,295.502z M161.69,365.595c-6.831-0.921-4.903-7.78-7.168-14.337   c-5.841-5.572-12.768-6.217-19.116-7.965c3.939,15.177,9.872,28.359,29.471,27.877c10.778-4.887,14.549-16.78,18.32-28.674   C169.947,341.038,162.954,352.441,161.69,365.595z" fill-rule="evenodd"/>
	<path clip-rule="evenodd" d="M159.3,256.474c9.065-0.757,21.602,1.9,26.285,7.169   c5.049,5.68,7.68,19.634,3.186,27.081c-7.918,13.122-54.065,12.418-57.348-4.779C127.951,267.757,140.963,258.004,159.3,256.474z    M140.981,264.438c-10.32,7.355-6.677,26.114,4.779,31.063c0.797-2.466-4.239-3.093-1.593-4.778   c6.055,4.751,14.163-2.104,18.32,0.796c-1.03,1.626-3.862,1.449-3.187,4.779c2.615-0.306,3.512-2.329,5.576-3.186   c-0.556,2.945,1.26,3.519,3.982,3.186c-1.622-2.58-3.167-4.563-0.796-7.965c0.938,0.125,2.261-0.137,2.39,0.796   c-0.234,1.625-2.155,1.562-2.39,3.187c3.221,0.743,7.524,5.29,10.354,1.593c-1.978,0.12-3.306-0.411-3.982-1.593   c1.492-3.45,2.844-4.279,0.796-7.965c1.158,0.436,4.117-0.931,3.983,0.796c-0.62,1.771-1.673,3.106-1.593,5.576   c5.389,1.671,0.751-6.683,6.372-4.779c2.658-4.144,1.272-7.438,3.982-11.151c-1.876-2.637-5.385-3.642-5.576-7.965   c-3.029-1.171-0.156,3.561-3.186,2.39c-0.179-1.506,0.897-1.758,0.796-3.186c-3.303-0.913-3.104,1.675-5.576,1.593   c0-1.328,0-2.655,0-3.982C162.623,261.297,150.458,257.685,140.981,264.438z M185.585,289.927c0.99-2.488,3.967-3.463,2.39-6.372   C185.98,284.33,182.057,288.538,185.585,289.927z M152.132,295.502c1.738-0.917,5.152-0.157,5.576-2.389   c-1.097,0.034-1.749-0.375-2.39-0.797C155.241,294.363,152.209,293.455,152.132,295.502z" fill-rule="evenodd"/>
	<path clip-rule="evenodd" d="M230.986,270.015c0.926-0.13,1.417,0.176,1.593,0.796   c-7.604,15.716-1.478,33.524,3.982,46.994C221.049,309.625,223.064,285.012,230.986,270.015z" fill-rule="evenodd"/>
	<path fill="#7E543A" clip-rule="evenodd" d="M290.723,329.752c2.072,1.114,3.2,3.172,5.576,3.982   c-1.151,1.238-1.676,3.104-2.39,4.779c2.179,2.517,3.396-2.518,5.575,0c-2.11,2.041-3.153,5.152-0.796,7.965   c2.51,0.12,0.336-4.442,3.982-3.186c-3.191,9.657-5.248,16.348-15.931,19.115C273.164,355.854,276.544,330.512,290.723,329.752z    M292.317,336.124c-2.386-0.524,0.762-1.702,0-3.186c-0.797,0-1.594,0-2.39,0C289.061,335.224,290.778,338.865,292.317,336.124z" fill-rule="evenodd"/>
	<path fill="#7E543A" clip-rule="evenodd" d="M35.046,340.106c-0.032,2.422-0.463,5.242,2.39,4.779   c3.923-2.05-2.125-3.439,0-5.576c2.597,0.59,2.396,3.977,3.186,6.372c-3.153,2.157-8.667,1.954-7.168,8.762   c-3.34,0.293-0.568-2.595-0.796-3.982c-4.745,0.853-1.439,9.614,2.389,6.372c-1.862,4.058-5.488,1.239-7.965,0   c-0.865,0.197-0.54,1.584-1.593,1.593c1.559,1.628,3.997,2.376,7.168,2.39c-8.356,7.379-22.155-6.88-19.913-17.522   c1.389-6.591,11.65-10.486,11.151-16.727c6.021,0.883,8.866,4.94,12.744,7.965c0.244,1.837-2.301,0.885-2.39,2.39   c1.194,2.396,3.986-3.389,3.982,1.593C36.649,338.523,37.219,340.687,35.046,340.106z M30.267,346.479   c4.8,1.23,2.794-8.375,1.593-8.762C30.654,339.963,29.936,342.695,30.267,346.479z" fill-rule="evenodd"/>
	<path clip-rule="evenodd" d="M242.933,332.142c2.052,7.057-10.933,16.906-15.93,23.099   c1.133,14.531,11.8,19.529,16.727,30.267c-9.108-4.166-10.554-15.996-19.116-20.709c0-1.062,0-2.124,0-3.186   c-5.348-0.569-6.344,3.214-11.151,3.186c-2.1,4.95-8.01,16.085-15.134,15.931c4.124-5.233,14.007-11.184,11.948-17.523   c3.822-0.69,3.56-5.467,7.168-6.372c-3.805-0.988-0.652-3.928-0.796-5.575c-0.62-7.071-13.99-9.639-9.558-16.727   c3.85,5.973,8.43,11.217,11.947,17.522c1.707-1.719,4.451-0.407,5.576,0.797C231.208,347.049,238.022,341.361,242.933,332.142z" fill-rule="evenodd"/>
</g>
<metadata><rdf:RDF xmlns:rdf="http://www.w3.org/1999/02/22-rdf-syntax-ns#"><cc:Work xmlns:cc="http://creativecommons.org/ns#"><dc:subject xmlns:dc="http://purl.org/dc/elements/1.1/"><rdf:Bag>
            <rdf:li rate="0" xml:lang="eng">pineapple</rdf:li>
            <rdf:li rate="0" xml:lang="ru"></rdf:li>
          </rdf:Bag></dc:subject></cc:Work></rdf:RDF></metadata></svg>