<?xml version="1.0" standalone="no"?>
<!DOCTYPE svg PUBLIC "-//W3C//DTD SVG 20010904//EN"
 "http://www.w3.org/TR/2001/REC-SVG-20010904/DTD/svg10.dtd">
<svg version="1.0" 
  xmlns="http://www.w3.org/2000/svg" width="225.000000pt" height="225.000000pt" viewBox="0 0 225.000000 225.000000" preserveAspectRatio="xMidYMid meet">
  <metadata>
Created by potrace 1.15, written by Peter Selinger 2001-2017
  </metadata>
  <g transform="translate(0.000000,225.000000) scale(0.100000,-0.100000)" fill="#FFFF00" stroke="none">
    <path d="M1677 2236 c-22 -8 -50 -25 -64 -38 -28 -26 -101 -142 -193 -307 -55
-97 -66 -111 -75 -96 -75 131 -165 216 -295 281 -88 44 -134 48 -161 15 -33
-40 -24 -59 74 -160 90 -93 117 -134 133 -195 6 -27 5 -29 -19 -22 -14 3 -61
11 -103 17 -43 6 -86 15 -96 20 -44 23 -136 1 -210 -52 -29 -21 -30 -25 -25
-76 7 -67 34 -124 67 -140 38 -18 150 -30 193 -21 44 9 77 -4 120 -49 l28 -30
-34 -79 c-70 -162 -115 -235 -251 -404 -102 -125 -156 -171 -346 -289 -182
-113 -352 -235 -399 -285 -23 -25 -24 -29 -13 -77 24 -102 111 -185 240 -228
145 -49 405 -6 627 105 213 105 437 304 632 560 113 148 203 233 300 281 129
64 217 59 298 -18 66 -62 101 -65 130 -8 20 37 19 62 -4 108 -56 109 -219 177
-368 153 -29 -5 -53 -6 -53 -2 0 4 24 18 52 30 48 21 62 22 160 16 101 -7 108
-6 129 15 48 48 4 165 -76 203 -43 21 -149 39 -176 31 -10 -4 -19 -4 -19 -2 0
3 18 58 39 123 53 159 73 260 74 369 1 102 -10 133 -68 183 -78 69 -174 96
-248 68z m149 -51 c112 -56 142 -121 124 -270 -15 -123 -80 -348 -126 -437 -8
-15 -14 -29 -14 -31 0 -2 38 -1 85 1 109 6 165 -9 206 -55 24 -28 29 -42 27
-71 -3 -37 -3 -37 -48 -35 -169 7 -176 6 -233 -20 -54 -25 -158 -112 -178
-149 -9 -16 -6 -16 36 2 195 84 404 50 482 -78 27 -43 28 -61 9 -88 -14 -18
-16 -17 -58 23 -55 54 -102 73 -177 73 -163 0 -323 -115 -513 -370 -280 -375
-610 -588 -976 -631 -127 -15 -179 -9 -266 35 -83 41 -125 83 -151 150 -21 54
-21 55 75 131 78 62 203 146 365 245 74 45 148 100 193 144 75 72 227 265 278
351 36 62 124 260 124 280 0 28 -70 93 -125 116 l-54 22 -3 71 c-2 39 -8 79
-12 89 -8 18 -5 18 50 12 32 -4 91 -16 129 -25 39 -10 71 -17 71 -16 1 0 -2
28 -7 61 -15 91 -44 141 -141 239 -48 49 -88 93 -88 97 0 5 9 13 19 19 33 17
190 -69 271 -149 67 -66 130 -173 130 -220 0 -12 4 -21 8 -21 4 0 63 97 131
216 68 119 138 232 155 252 58 66 121 77 202 37z"/>
    <path d="M1205 1500 c-85 -56 -84 -178 2 -231 27 -17 45 -20 86 -16 42 4 56
10 84 41 32 34 38 56 33 116 -6 87 -129 140 -205 90z m136 -49 c21 -22 29 -39
29 -66 0 -45 -45 -95 -85 -95 -93 0 -136 103 -68 166 37 34 86 32 124 -5z"/>
    <path d="M1475 1416 c-68 -68 -25 -176 70 -176 95 0 138 108 70 176 -18 18
-35 24 -70 24 -35 0 -52 -6 -70 -24z"/>
    <path d="M1265 1196 c-40 -17 -95 -72 -111 -113 -17 -38 -18 -116 -4 -144 10
-18 23 -19 206 -19 l194 0 10 26 c33 86 -17 196 -112 245 -44 22 -137 25 -183
5z m164 -44 c56 -28 92 -81 94 -138 l2 -49 -170 0 -170 0 -3 35 c-10 116 139
208 247 152z"/>
  </g>
</svg>
